<?xml version="1.0" encoding="utf-8"?>
<!-- Generator: Adobe Illustrator 25.2.1, SVG Export Plug-In . SVG Version: 6.00 Build 0)  -->
<svg version="1.1" id="Layer_1" xmlns="http://www.w3.org/2000/svg" xmlns:xlink="http://www.w3.org/1999/xlink" x="0px" y="0px"
	 viewBox="0 0 40 40" style="enable-background:new 0 0 40 40;" xml:space="preserve">
<style type="text/css">
	.st0{fill:#299798;}
</style>
<path class="st0" d="M0.1,8.9C0.6,6.6,2.7,5,5,5h30c2.3,0,4.4,1.6,4.9,3.9L20,21L0.1,8.9z M0,11.7v17.8l14.5-8.9L0,11.7z M16.9,22.1
	L0.5,32.1C1.3,33.9,3.1,35,5,35h30c1.9,0,3.7-1.1,4.5-2.9L23.1,22.1L20,24L16.9,22.1L16.9,22.1z M25.5,20.6L40,29.5V11.7L25.5,20.6
	L25.5,20.6z"/>
</svg>
