<?xml version="1.0" encoding="utf-8"?>
<!-- Generator: Adobe Illustrator 25.2.1, SVG Export Plug-In . SVG Version: 6.00 Build 0)  -->
<svg version="1.1" id="Layer_1" xmlns="http://www.w3.org/2000/svg" xmlns:xlink="http://www.w3.org/1999/xlink" x="0px" y="0px"
	 viewBox="0 0 40 40" style="enable-background:new 0 0 40 40;" xml:space="preserve">
<style type="text/css">
	.st0{fill:#234078;stroke:#234078;stroke-width:1.5;stroke-miterlimit:10;}
</style>
<path class="st0" d="M29.3,20.7v-5.3c0-0.5,0-1-0.1-1.5C28.4,5.9,21.5,1.5,15,1.5c-6.3,0-9.8,4.4-10.2,5c0,0,0,0-0.1,0.1V1.5H1.6v37
	h3V37V23.6h21.7v13.4v1.4h3V23.6h9.2h0.2v-3H29.3z M26.3,15.8v4.8H4.5v-4.8C4.5,9.8,9.4,5,15.4,5c0,0,0,0,0.1,0
	C21.4,5,26.3,9.8,26.3,15.8C26.3,15.8,26.3,15.8,26.3,15.8z"/>
</svg>
