<?xml version="1.0" encoding="utf-8"?>
<!-- Generator: Adobe Illustrator 25.2.1, SVG Export Plug-In . SVG Version: 6.00 Build 0)  -->
<svg version="1.1" id="Layer_1" xmlns="http://www.w3.org/2000/svg" xmlns:xlink="http://www.w3.org/1999/xlink" x="0px" y="0px"
	 viewBox="0 0 173.3 40" style="enable-background:new 0 0 173.3 40;" xml:space="preserve">
<style type="text/css">
	.st0{fill:#299697;}
	.st1{fill:#234078;stroke:#234078;stroke-width:1.5;stroke-miterlimit:10;}
</style>
<g>
	<path class="st0" d="M53.5,26.7H48l-1.2,3.4H45l5-13.1h1.5l5,13.1h-1.8L53.5,26.7z M48.6,25.2h4.5l-2.2-6.1L48.6,25.2z"/>
	<path class="st0" d="M59.9,30.1h-1.7V16.3h1.7V30.1z"/>
	<path class="st0" d="M65.8,27.7l2.3-7.3h1.8l-3.9,11.2c-0.6,1.6-1.6,2.5-2.8,2.5h-0.3L62.1,34v-1.5h0.4c0.5,0,1-0.1,1.3-0.3
		c0.3-0.2,0.5-0.7,0.8-1.2l0.3-1l-3.4-9.6h1.8L65.8,27.7z"/>
	<path class="st0" d="M76.9,27.5c0-0.4-0.2-0.8-0.5-1c-0.3-0.2-0.9-0.5-1.8-0.7c-0.8-0.2-1.5-0.3-2-0.7c-0.5-0.2-0.8-0.5-1.1-0.9
		c-0.2-0.3-0.3-0.7-0.3-1.2c0-0.8,0.3-1.5,1-2s1.5-0.8,2.6-0.8c1.1,0,2,0.3,2.7,0.8c0.7,0.5,1,1.3,1,2.2h-1.7c0-0.4-0.2-0.8-0.5-1.2
		c-0.3-0.3-0.8-0.5-1.5-0.5c-0.6,0-1.1,0.1-1.4,0.3c-0.3,0.2-0.5,0.6-0.5,1s0.2,0.7,0.5,0.9c0.3,0.2,0.9,0.4,1.7,0.6
		c0.8,0.2,1.5,0.4,2,0.7c0.5,0.2,0.9,0.5,1.2,0.9c0.2,0.3,0.3,0.8,0.3,1.3c0,0.8-0.3,1.6-1,2.1c-0.7,0.5-1.6,0.8-2.7,0.8
		c-0.8,0-1.5-0.1-2.1-0.4c-0.6-0.3-1-0.7-1.4-1.2c-0.3-0.5-0.5-1-0.5-1.6h1.6c0,0.5,0.2,1,0.7,1.3c0.4,0.3,1,0.5,1.7,0.5
		c0.6,0,1.2-0.1,1.5-0.3C76.7,28.2,76.9,27.9,76.9,27.5z"/>
	<path class="st0" d="M86.4,27.5c0-0.4-0.2-0.8-0.5-1c-0.3-0.2-0.9-0.5-1.8-0.7c-0.8-0.2-1.5-0.3-2-0.7c-0.5-0.2-0.8-0.5-1.1-0.9
		c-0.2-0.3-0.3-0.7-0.3-1.2c0-0.8,0.3-1.5,1-2c0.7-0.5,1.5-0.8,2.6-0.8c1.1,0,2,0.3,2.7,0.8c0.7,0.5,1,1.3,1,2.2h-1.7
		c0-0.4-0.2-0.8-0.5-1.2c-0.3-0.3-0.8-0.5-1.5-0.5s-1.1,0.1-1.4,0.3c-0.3,0.2-0.5,0.6-0.5,1s0.2,0.7,0.5,0.9
		c0.3,0.2,0.9,0.4,1.7,0.6c0.8,0.2,1.5,0.4,2,0.7c0.5,0.2,0.9,0.5,1.2,0.9c0.2,0.3,0.3,0.8,0.3,1.3c0,0.8-0.3,1.6-1,2.1
		c-0.7,0.5-1.6,0.8-2.7,0.8c-0.8,0-1.5-0.1-2.1-0.4c-0.6-0.3-1-0.7-1.4-1.2c-0.3-0.5-0.5-1-0.5-1.6h1.7c0,0.5,0.2,1,0.7,1.3
		c0.4,0.3,1,0.5,1.7,0.5c0.6,0,1.2-0.1,1.5-0.3C86.2,28.2,86.4,27.9,86.4,27.5z"/>
	<path class="st0" d="M96.2,30.1c-0.1-0.2-0.2-0.5-0.2-1c-0.8,0.8-1.7,1.2-2.7,1.2c-1,0-1.8-0.2-2.4-0.8s-0.9-1.2-0.9-2.1
		c0-1,0.3-1.8,1.2-2.4c0.8-0.5,1.8-0.8,3.2-0.8h1.6v-0.8c0-0.6-0.2-1-0.5-1.4c-0.3-0.3-0.8-0.5-1.5-0.5c-0.6,0-1.1,0.1-1.5,0.4
		c-0.3,0.3-0.6,0.7-0.6,1.1h-1.7c0-0.5,0.2-1,0.5-1.4c0.3-0.4,0.8-0.8,1.4-1.1c0.6-0.2,1.2-0.3,2-0.3c1.1,0,2,0.3,2.6,0.8
		s1,1.3,1,2.3v4.5c0,0.9,0.1,1.6,0.3,2.1v0.1L96.2,30.1L96.2,30.1L96.2,30.1z M93.5,28.8c0.5,0,1-0.1,1.5-0.4c0.5-0.2,0.8-0.6,1-1
		v-2h-1.3c-2,0-3,0.6-3,1.8c0,0.5,0.2,0.9,0.5,1.2C92.5,28.6,92.9,28.8,93.5,28.8z"/>
	<path class="st0" d="M115.1,30.1h-1.7L106.8,20v10.1H105V17h1.7l6.6,10.2V17h1.7V30.1z"/>
	<path class="st0" d="M117.9,29.2c0-0.3,0-0.5,0.2-0.7c0.2-0.2,0.4-0.3,0.8-0.3c0.3,0,0.6,0.1,0.8,0.3c0.2,0.2,0.2,0.4,0.2,0.7
		s0,0.5-0.2,0.7c-0.2,0.2-0.4,0.3-0.8,0.3c-0.3,0-0.6-0.1-0.8-0.3C118,29.7,117.9,29.5,117.9,29.2z"/>
	<path class="st0" d="M136.2,18.4H132V30h-1.7V18.4h-4.2V17h10.1L136.2,18.4L136.2,18.4z"/>
	<path class="st0" d="M141.9,30.3c-1.3,0-2.4-0.4-3.2-1.3s-1.2-2-1.2-3.5v-0.3c0-1,0.2-1.8,0.5-2.6c0.3-0.7,0.8-1.3,1.5-1.8
		s1.4-0.7,2.1-0.7c1.3,0,2.3,0.4,2.9,1.2c0.7,0.8,1,2,1,3.6v0.7H139c0,1,0.3,1.7,0.8,2.3c0.5,0.6,1.2,0.8,2,0.8
		c0.6,0,1.1-0.1,1.5-0.3c0.4-0.2,0.8-0.5,1.1-1l1,0.8C144.8,29.6,143.5,30.3,141.9,30.3z M141.7,21.6c-0.7,0-1.2,0.2-1.7,0.7
		c-0.4,0.5-0.7,1.2-0.8,2.1h4.9v-0.1c0-0.8-0.3-1.5-0.7-2C142.9,21.8,142.4,21.6,141.7,21.6z"/>
	<path class="st0" d="M152.3,21.9c-0.2,0-0.5,0-0.8,0c-1.1,0-1.8,0.5-2.2,1.4v6.9h-1.7v-9.8h1.6v1.1c0.5-0.8,1.3-1.3,2.3-1.3
		c0.3,0,0.5,0,0.7,0.1L152.3,21.9L152.3,21.9z"/>
	<path class="st0" d="M158.6,21.9c-0.2,0-0.5,0-0.8,0c-1.1,0-1.8,0.5-2.2,1.4v6.9h-1.7v-9.8h1.6v1.1c0.5-0.8,1.3-1.3,2.3-1.3
		c0.3,0,0.5,0,0.7,0.1L158.6,21.9L158.6,21.9z"/>
	<path class="st0" d="M163.2,27.7l2.3-7.3h1.8l-3.9,11.2c-0.6,1.6-1.6,2.5-2.8,2.5h-0.3l-0.6-0.1v-1.5l0.4,0c0.5,0,1-0.1,1.3-0.3
		c0.3-0.2,0.5-0.7,0.8-1.2l0.3-1l-3.5-9.6h1.8L163.2,27.7z"/>
</g>
<path class="st1" d="M22.8,16.5v-3.9c0-0.4,0-0.7,0-1.1c-0.6-5.8-5.6-8.9-10.3-8.9C7.8,2.6,5.4,5.7,5,6.2l0,0V2.6H2.8v26.8h2.1v-1.1
	v-9.7h15.8v9.7v1h2.1V18.5h6.7H31v-2.1h-8.2V16.5z M20.6,12.9v3.5H4.9v-3.5c0-4.3,3.5-7.8,7.8-7.8l0,0C17.2,5.1,20.6,8.6,20.6,12.9
	L20.6,12.9z"/>
</svg>
