<?xml version="1.0" encoding="utf-8"?>
<!-- Generator: Adobe Illustrator 25.2.1, SVG Export Plug-In . SVG Version: 6.00 Build 0)  -->
<svg version="1.1" id="Layer_1" xmlns="http://www.w3.org/2000/svg" xmlns:xlink="http://www.w3.org/1999/xlink" x="0px" y="0px"
	 viewBox="0 0 330.3 40" style="enable-background:new 0 0 330.3 40;" xml:space="preserve">
<style type="text/css">
	.st0{fill:#299697;}
	.st1{fill:#234078;stroke:#234078;stroke-width:1.5;stroke-miterlimit:10;}
</style>
<g>
	<path class="st0" d="M74.7,23.1H63.5l-2.5,7h-3.6L67.6,3.5h3.1l10.2,26.6h-3.6L74.7,23.1z M64.7,20.1h9.1L69.3,7.7L64.7,20.1z"/>
	<path class="st0" d="M87.6,30.1h-3.4V2h3.4V30.1z"/>
	<path class="st0" d="M99.6,25.1l4.6-14.8h3.6l-8,22.9c-1.2,3.2-3.2,5-5.8,5h-0.6l-1.2-0.2v-3L93,35c1.1,0,2-0.2,2.7-0.7
		c0.6-0.5,1.1-1.4,1.6-2.5l0.7-2L91,10.3h3.7L99.6,25.1z"/>
	<path class="st0" d="M122.3,24.7c0-0.9-0.4-1.6-1-2.1c-0.6-0.5-1.9-1-3.6-1.4c-1.7-0.4-3.1-0.7-4.1-1.4c-1-0.5-1.7-1.1-2.2-1.9
		c-0.5-0.7-0.7-1.5-0.7-2.5c0-1.6,0.7-3,2.1-4.1c1.4-1.1,3.1-1.7,5.2-1.7c2.2,0,4.1,0.6,5.5,1.7c1.4,1.1,2.1,2.6,2.1,4.5h-3.5
		c0-0.9-0.4-1.7-1.1-2.4c-0.7-0.6-1.7-1-3-1s-2.2,0.2-2.9,0.7c-0.7,0.5-1,1.2-1,2.1s0.4,1.5,1,1.9c0.6,0.4,1.9,0.9,3.5,1.2
		c1.7,0.4,3.1,0.9,4.1,1.4c1,0.5,1.9,1.1,2.4,1.9c0.5,0.7,0.7,1.6,0.7,2.7c0,1.7-0.7,3.2-2.1,4.2c-1.4,1.1-3.2,1.6-5.5,1.6
		c-1.6,0-3-0.2-4.2-0.9c-1.2-0.6-2.1-1.4-2.9-2.4c-0.7-1-1-2.1-1-3.2h3.2c0,1.1,0.5,2,1.4,2.7c0.9,0.7,2,1,3.4,1
		c1.2,0,2.4-0.2,3.1-0.7C121.9,26.3,122.3,25.6,122.3,24.7z"/>
	<path class="st0" d="M141.6,24.7c0-0.9-0.4-1.6-1-2.1c-0.7-0.5-1.9-1-3.6-1.4c-1.7-0.4-3.1-0.7-4.1-1.4c-1-0.5-1.7-1.1-2.2-1.9
		c-0.5-0.7-0.7-1.5-0.7-2.5c0-1.6,0.7-3,2.1-4.1s3.1-1.7,5.2-1.7c2.2,0,4.1,0.6,5.5,1.7c1.4,1.1,2.1,2.6,2.1,4.5h-3.4
		c0-0.9-0.4-1.7-1.1-2.4c-0.7-0.6-1.7-1-3-1s-2.2,0.2-2.9,0.7c-0.6,0.5-1,1.2-1,2.1s0.4,1.5,1,1.9c0.6,0.4,1.9,0.9,3.5,1.2
		c1.7,0.4,3.1,0.9,4.1,1.4c1,0.5,1.9,1.1,2.4,1.9c0.5,0.7,0.7,1.6,0.7,2.7c0,1.7-0.7,3.2-2.1,4.2c-1.4,1.1-3.2,1.6-5.5,1.6
		c-1.6,0-3-0.2-4.2-0.9c-1.2-0.6-2.1-1.4-2.9-2.4c-0.7-1-1-2.1-1-3.2h3.4c0,1.1,0.5,2,1.4,2.7c0.9,0.6,2,1,3.4,1
		c1.2,0,2.4-0.2,3.1-0.7C141.2,26.3,141.6,25.6,141.6,24.7z"/>
	<path class="st0" d="M161.6,30.1c-0.2-0.4-0.4-1.1-0.5-2.1c-1.6,1.6-3.5,2.5-5.6,2.5c-2,0-3.6-0.5-4.8-1.6
		c-1.2-1.1-1.9-2.5-1.9-4.2c0-2.1,0.7-3.6,2.4-4.8c1.6-1.1,3.7-1.7,6.6-1.7h3.2v-1.6c0-1.2-0.4-2.1-1.1-2.9c-0.7-0.7-1.7-1-3.1-1
		c-1.2,0-2.2,0.2-3,0.9c-0.7,0.6-1.2,1.4-1.2,2.2h-3.4c0-1,0.4-2,1-2.9c0.7-0.9,1.6-1.6,2.9-2.2c1.2-0.5,2.5-0.7,4-0.7
		c2.2,0,4.1,0.6,5.3,1.7s2,2.7,2,4.7v9.1c0,1.9,0.2,3.2,0.7,4.3v0.2h-3.5V30.1z M156,27.4c1.1,0,2.1-0.2,3-0.9
		c1-0.5,1.6-1.2,2.1-2.1v-4.1h-2.6c-4.1,0-6.2,1.2-6.2,3.6c0,1.1,0.4,1.9,1.1,2.5C154,27.1,154.9,27.4,156,27.4z"/>
	<path class="st0" d="M200,30.1h-3.5L183.1,9.5v20.5h-3.5V3.3h3.5L196.5,24V3.3h3.5V30.1z"/>
	<path class="st0" d="M205.8,28.2c0-0.6,0.1-1.1,0.5-1.5c0.4-0.4,0.9-0.6,1.6-0.6c0.7,0,1.2,0.2,1.6,0.6s0.5,0.9,0.5,1.5
		c0,0.6-0.1,1-0.5,1.4c-0.4,0.4-0.9,0.6-1.6,0.6c-0.7,0-1.2-0.2-1.6-0.6C205.9,29.3,205.8,28.8,205.8,28.2z"/>
	<path class="st0" d="M243.1,6.2h-8.6v23.7H231V6.2h-8.6V3.3h20.6L243.1,6.2L243.1,6.2z"/>
	<path class="st0" d="M254.7,30.4c-2.7,0-4.8-0.9-6.6-2.6s-2.5-4.1-2.5-7.1V20c0-2,0.4-3.7,1.1-5.2c0.7-1.5,1.7-2.7,3.1-3.6
		c1.4-0.9,2.9-1.4,4.3-1.4c2.6,0,4.6,0.9,6,2.5c1.4,1.7,2.1,4.1,2.1,7.3V21h-13.4c0,2,0.6,3.5,1.7,4.7c1.1,1.2,2.5,1.7,4.1,1.7
		c1.2,0,2.2-0.2,3-0.7c0.9-0.5,1.6-1.1,2.2-2l2.1,1.6C260.5,29.1,258,30.4,254.7,30.4z M254.3,12.7c-1.4,0-2.5,0.5-3.5,1.5
		c-0.9,1-1.5,2.4-1.7,4.2h9.9v-0.2c-0.1-1.7-0.6-3.1-1.4-4C256.8,13.2,255.7,12.7,254.3,12.7z"/>
	<path class="st0" d="M275.9,13.3c-0.5-0.1-1.1-0.1-1.6-0.1c-2.2,0-3.7,1-4.5,2.9v14h-3.4V10.2h3.2v2.2c1.1-1.7,2.7-2.6,4.7-2.6
		c0.6,0,1.1,0.1,1.5,0.2V13.3z"/>
	<path class="st0" d="M288.6,13.3c-0.5-0.1-1.1-0.1-1.6-0.1c-2.2,0-3.7,1-4.5,2.9v14h-3.4V10.2h3.2v2.2c1.1-1.7,2.7-2.6,4.7-2.6
		c0.6,0,1.1,0.1,1.5,0.2V13.3z"/>
	<path class="st0" d="M298.1,25.1l4.6-14.8h3.6l-8,22.9c-1.2,3.2-3.2,5-5.8,5h-0.6l-1.2-0.2v-3l0.9,0.1c1.1,0,2-0.2,2.7-0.7
		c0.6-0.5,1.1-1.4,1.6-2.5l0.7-2l-7.1-19.5h3.7L298.1,25.1z"/>
</g>
<path class="st1" d="M22.8,16.5v-3.9c0-0.4,0-0.7,0-1.1c-0.6-5.8-5.6-8.9-10.3-8.9C7.8,2.6,5.4,5.7,5,6.2l0,0V2.6H2.8v26.8h2.1v-1.1
	v-9.7h15.8v9.7v1h2.1V18.5h6.7H31v-2.1h-8.2V16.5z M20.6,12.9v3.5H4.9v-3.5c0-4.3,3.5-7.8,7.8-7.8l0,0C17.2,5.1,20.6,8.6,20.6,12.9
	L20.6,12.9z"/>
</svg>
