<?xml version="1.0" encoding="utf-8"?>
<!-- Generator: Adobe Illustrator 25.2.1, SVG Export Plug-In . SVG Version: 6.00 Build 0)  -->
<svg version="1.1" id="Layer_1" xmlns="http://www.w3.org/2000/svg" xmlns:xlink="http://www.w3.org/1999/xlink" x="0px" y="0px"
	 viewBox="0 0 2610 2802" style="enable-background:new 0 0 2610 2802;" xml:space="preserve">
<style type="text/css">
	.st0{fill:#FFFFFF;}
	.st1{fill-rule:evenodd;clip-rule:evenodd;fill:#FCF8F2;}
	.st2{fill-rule:evenodd;clip-rule:evenodd;fill:#BCECE5;}
	.st3{fill-rule:evenodd;clip-rule:evenodd;fill:#45ADA1;}
	.st4{fill-rule:evenodd;clip-rule:evenodd;fill:#7AD0C6;}
	.st5{fill-rule:evenodd;clip-rule:evenodd;fill:#FFFFFF;}
	.st6{fill:none;stroke:#45ADA1;stroke-width:2;stroke-miterlimit:10;}
	.st7{fill:#52565F;}
	.st8{font-family:'Roboto-Regular';}
	.st9{font-size:13.694px;}
	.st10{opacity:0.2;fill-rule:evenodd;clip-rule:evenodd;fill:#45ADA1;enable-background:new    ;}
	.st11{opacity:0.197;fill-rule:evenodd;clip-rule:evenodd;fill:#58A8F7;enable-background:new    ;}
	.st12{opacity:0.197;fill-rule:evenodd;clip-rule:evenodd;fill:#FFFFFF;enable-background:new    ;}
	.st13{opacity:0.198;fill-rule:evenodd;clip-rule:evenodd;fill:#FFFFFF;enable-background:new    ;}
	.st14{opacity:0.499;fill-rule:evenodd;clip-rule:evenodd;fill:#FFFFFF;enable-background:new    ;}
	.st15{fill-rule:evenodd;clip-rule:evenodd;fill:#104D4D;}
	.st16{opacity:0.2;}
	.st17{fill:#104D4D;}
	.st18{fill:#BCECE5;stroke:#45ADA1;stroke-width:2;stroke-miterlimit:10;}
	.st19{fill:none;stroke:#104D4D;stroke-miterlimit:10;}
	.st20{font-size:16.5261px;}
	.st21{fill:none;stroke:#45ADA1;stroke-width:2;stroke-miterlimit:10;stroke-dasharray:5.9533,5.9533;}
	.st22{fill:none;stroke:#45ADA1;stroke-width:2;stroke-miterlimit:10;stroke-dasharray:6;}
	.st23{fill:none;stroke:#104D4D;stroke-miterlimit:10;stroke-dasharray:12.0439,12.0439;}
	.st24{fill:none;}
	.st25{font-family:'Roboto-Italic';}
	.st26{font-size:72px;}
</style>
<g transform="translate(45,213)">
	<g>
		<g>
			<g transform="translate(1142, 270)">
				<path class="st0" d="M9.8-137H182c1.1,0,2,0.9,2,2V84.1c0,1.1-0.9,2-2,2H9.8c-1.1,0-2-0.9-2-2v-219.2C7.9-136.2,8.8-137,9.8-137
					z"/>
				<g>
					<g>
						<g transform="translate( 0, 0 )">
							<g>
								<path class="st1" d="M7.9-134.1c0-1.6,1.3-2.9,2.9-2.9H181c1.6,0,2.9,1.3,2.9,2.9v178H7.9V-134.1z"/>
								<path class="st2" d="M7.9-134.1c0-1.6,1.3-2.9,2.9-2.9H181c1.6,0,2.9,1.3,2.9,2.9v12.7H7.9V-134.1z"/>
								<path class="st3" d="M15.2-126.3c-1.4,0-2.4-1.1-2.4-2.4c0-1.4,1.1-2.4,2.4-2.4s2.4,1.1,2.4,2.4
									C17.7-127.4,16.6-126.3,15.2-126.3z M23.1-126.3c-1.4,0-2.4-1.1-2.4-2.4c0-1.4,1.1-2.4,2.4-2.4c1.4,0,2.4,1.1,2.4,2.4
									S24.4-126.3,23.1-126.3z M30.9-126.3c-1.4,0-2.4-1.1-2.4-2.4c0-1.4,1.1-2.4,2.4-2.4c1.3,0,2.4,1.1,2.4,2.4
									S32.2-126.3,30.9-126.3z"/>
								<g transform="translate(10 26)">
									<polygon class="st4" points="7.7,-137.6 56.6,-137.6 56.6,-132.7 7.7,-132.7 									"/>
									<polygon class="st4" points="7.7,-128.8 37,-128.8 37,-123.9 7.7,-123.9 									"/>
								</g>
								<g transform="translate(10 47)">
									<path class="st4" d="M9.6-138.1h121.3c1.1,0,2,0.9,2,2V-97c0,1.1-0.9,2-2,2H9.6c-1.1,0-2-0.9-2-2v-39.1
										C7.7-137.2,8.5-138.1,9.6-138.1z"/>
									<path class="st5" d="M9.6-137.1h121.3c0.5,0,1,0.4,1,1V-97c0,0.5-0.4,1-1,1H9.6c-0.5,0-1-0.4-1-1v-39.1
										C8.7-136.6,9.1-137.1,9.6-137.1z"/>
									<polygon class="st4" points="12.6,-133.2 61.5,-133.2 61.5,-128.3 12.6,-128.3 									"/>
									<g transform="translate(5 15)">
										<polygon class="st2" points="7.6,-124.7 95.6,-124.7 95.6,-121.8 7.6,-121.8 										"/>
										<polygon class="st2" points="7.6,-131.5 95.6,-131.5 95.6,-128.6 7.6,-128.6 										"/>
										<polygon class="st2" points="7.6,-138.4 95.6,-138.4 95.6,-135.4 7.6,-135.4 										"/>
										<polygon class="st2" points="7.6,-117.8 60.4,-117.8 60.4,-114.9 7.6,-114.9 										"/>
									</g>
									<rect x="123.1" y="-131.2" class="st3" width="4.9" height="1"/>
								</g>
								<g transform="translate(10 96)">
									<path class="st4" d="M9.6-139.1h121.3c1.1,0,2,0.9,2,2v10.8c0,1.1-0.9,2-2,2H9.6c-1.1,0-2-0.9-2-2v-10.9
										C7.7-138.3,8.5-139.1,9.6-139.1z"/>
									<path class="st5" d="M9.6-138.1h121.3c0.5,0,1,0.4,1,1v10.8c0,0.5-0.4,1-1,1H9.6c-0.5,0-1-0.4-1-1v-10.9
										C8.7-137.7,9.1-138.1,9.6-138.1z"/>
									<polygon class="st4" points="12.6,-134.2 61.5,-134.2 61.5,-129.3 12.6,-129.3 									"/>
									<path class="st3" d="M125-132.3v-2h1v2h2v1h-2v2h-1v-2h-2v-1H125z"/>
								</g>
								<g transform="translate(10 96)">
									<path class="st4" d="M9.6-119.6h121.3c1.1,0,2,0.9,2,2v10.8c0,1.1-0.9,2-2,2H9.6c-1.1,0-2-0.9-2-2v-10.8
										C7.7-118.7,8.5-119.6,9.6-119.6z"/>
									<path class="st5" d="M9.6-118.6h121.3c0.5,0,1,0.4,1,1v10.8c0,0.5-0.4,1-1,1H9.6c-0.5,0-1-0.4-1-1v-10.8
										C8.7-118.1,9.1-118.6,9.6-118.6z"/>
									<polygon class="st4" points="12.6,-114.7 61.5,-114.7 61.5,-109.8 12.6,-109.8 									"/>
									<path class="st3" d="M125-112.7v-2h1v2h2v1h-2v2h-1v-2h-2v-1H125z"/>
								</g>
								<g transform="translate(10 96)">
									<path class="st4" d="M9.6-100h121.3c1.1,0,2,0.9,2,2v10.8c0,1.1-0.9,2-2,2H9.6c-1.1,0-2-0.9-2-2V-98
										C7.7-99.1,8.5-100,9.6-100z"/>
									<path class="st5" d="M9.6-99h121.3c0.5,0,1,0.4,1,1v10.8c0,0.5-0.4,1-1,1H9.6c-0.5,0-1-0.4-1-1V-98C8.7-98.6,9.1-99,9.6-99
										z"/>
									<polygon class="st4" points="12.6,-95.1 61.5,-95.1 61.5,-90.2 12.6,-90.2 									"/>
									<path class="st3" d="M125-93.2v-2h1v2h2v1h-2v2h-1v-2h-2v-1H125z"/>
								</g>
								<g transform="translate(10 96)">
									<path class="st4" d="M9.6-80.4h121.3c1.1,0,2,0.9,2,2v10.8c0,1.1-0.9,2-2,2H9.6c-1.1,0-2-0.9-2-2v-10.8
										C7.7-79.6,8.5-80.4,9.6-80.4z"/>
									<path class="st5" d="M9.6-79.5h121.3c0.5,0,1,0.4,1,1v10.8c0,0.5-0.4,1-1,1H9.6c-0.5,0-1-0.4-1-1v-10.8
										C8.7-79,9.1-79.5,9.6-79.5z"/>
									<polygon class="st4" points="12.6,-75.5 61.5,-75.5 61.5,-70.7 12.6,-70.7 									"/>
									<path class="st3" d="M125-73.6v-2h1v2h2v1h-2v2h-1v-2h-2v-1H125z"/>
								</g>
							</g>
						</g>
					</g>
				</g>
				<path class="st6" d="M9.8-138H182c1.6,0,2.9,1.3,2.9,2.9V84c0,1.6-1.3,2.9-2.9,2.9H9.8c-1.6,0-2.9-1.3-2.9-2.9v-219.1
					C6.9-136.7,8.2-138,9.8-138z"/>
				<g transform="translate(0,206)">
					<g>
						<text transform="matrix(1 0 0 1 83.5342 -137.6183)" class="st7 st8 st9">FAQ</text>
					</g>
				</g>
			</g>
			<g transform="translate(22, 270)">
				<path class="st0" d="M34.3-137h172.2c1.1,0,2,0.9,2,2V84.1c0,1.1-0.9,2-2,2H34.3c-1.1,0-2-0.9-2-2v-219.2
					C32.4-136.2,33.3-137,34.3-137z"/>
				<g>
					<g>
						<g transform="translate( 0, 0 )">
							<g>
								<path class="st1" d="M32.4-134.1c0-1.6,1.3-2.9,2.9-2.9h170.2c1.6,0,2.9,1.3,2.9,2.9v178h-176V-134.1z"/>
								<path class="st2" d="M32.4-134.1c0-1.6,1.3-2.9,2.9-2.9h170.2c1.6,0,2.9,1.3,2.9,2.9v12.7h-176V-134.1z"/>
								<path class="st3" d="M39.7-126.3c-1.4,0-2.4-1.1-2.4-2.4c0-1.4,1.1-2.4,2.4-2.4c1.4,0,2.4,1.1,2.4,2.4
									C42.2-127.4,41.1-126.3,39.7-126.3z M47.5-126.3c-1.4,0-2.4-1.1-2.4-2.4c0-1.4,1.1-2.4,2.4-2.4c1.4,0,2.4,1.1,2.4,2.4
									C50-127.4,48.9-126.3,47.5-126.3z M55.4-126.3c-1.4,0-2.4-1.1-2.4-2.4c0-1.4,1.1-2.4,2.4-2.4c1.4,0,2.4,1.1,2.4,2.4
									C57.8-127.4,56.7-126.3,55.4-126.3z"/>
								<g transform="translate(10 26)">
									<path class="st2" d="M32.2-135.6c0-1.1,0.9-2,2-2h152.6c1.1,0,2,0.9,2,2v35.2c0,1.1-0.9,2-2,2H34.1c-1.1,0-2-0.9-2-2v-35.2
										H32.2z"/>
									<path class="st10" d="M153-116.1c23.2,0,34.5,7.5,57.2,17.6c-18.5,0-97.5,0-120.3,0C109.5-106.8,129.8-116.1,153-116.1z"/>
									<path class="st10" d="M75.7-128.8c24.8,0,40.9,14.5,63.1,30.3c-29.1,0-99.7,0-126.2,0C34-114.3,50.9-128.8,75.7-128.8z"/>
									<circle class="st10" cx="124.1" cy="-126.8" r="6.8"/>
								</g>
								<g transform="translate(10 86)">
									<polygon class="st2" points="32.2,-125.2 188.7,-125.2 188.7,-122.3 32.2,-122.3 									"/>
									<polygon class="st2" points="32.2,-132.1 188.7,-132.1 188.7,-129.1 32.2,-129.1 									"/>
									<polygon class="st2" points="32.2,-138.9 188.7,-138.9 188.7,-136 32.2,-136 									"/>
									<polygon class="st2" points="32.2,-118.4 126.1,-118.4 126.1,-115.4 32.2,-115.4 									"/>
								</g>
								<polygon class="st4" points="42.2,-62.7 91.1,-62.7 91.1,-57.8 42.2,-57.8 								"/>
								<g transform="translate(10 161)">
									<polygon class="st4" points="32.2,-140.5 71.3,-140.5 71.3,-135.7 32.2,-135.7 									"/>
									<polygon class="st4" points="40,-131.7 63.5,-131.7 63.5,-126.9 40,-126.9 									"/>
								</g>
								<g transform="translate(70 161)">
									<polygon class="st4" points="30.8,-140.5 70,-140.5 70,-135.7 30.8,-135.7 									"/>
									<polygon class="st4" points="38.7,-131.7 62.1,-131.7 62.1,-126.9 38.7,-126.9 									"/>
								</g>
								<g transform="translate(130 161)">
									<polygon class="st4" points="29.5,-140.5 68.7,-140.5 68.7,-135.7 29.5,-135.7 									"/>
									<polygon class="st4" points="37.4,-131.7 60.8,-131.7 60.8,-126.9 37.4,-126.9 									"/>
								</g>
								<g transform="translate(132 120)">
									<g>
										<circle id="zagsqxiqqe-about_us-g_1_" class="st3" cx="47.1" cy="-122" r="17.6"/>
									</g>
									<path class="st4" d="M47.1-90.4c-8.4,0-15.3-6.8-15.3-15.3s6.9-15.2,15.3-15.2s15.3,6.8,15.3,15.3S55.5-90.4,47.1-90.4z
										 M47.1-123.2c-3.2,0-5.9-2.6-5.9-5.9s2.6-5.9,5.9-5.9s5.9,2.6,5.9,5.9S50.3-123.2,47.1-123.2z"/>
								</g>
								<g transform="translate(132 120)">
									<g>
										<circle id="zagsqxiqqe-about_us-g_4_" class="st3" cx="-11.6" cy="-122" r="17.6"/>
									</g>
									<path class="st4" d="M-11.6-90.4c-8.4,0-15.3-6.8-15.3-15.3s6.9-15.2,15.3-15.2S3.7-114,3.7-105.6S-3.2-90.4-11.6-90.4z
										 M-11.6-123.2c-3.2,0-5.9-2.6-5.9-5.9s2.6-5.9,5.9-5.9s5.9,2.6,5.9,5.9S-8.4-123.2-11.6-123.2z"/>
								</g>
								<g transform="translate(132 120)">
									<g>
										<circle id="zagsqxiqqe-about_us-g_6_" class="st3" cx="-70.3" cy="-122" r="17.6"/>
									</g>
									<path class="st4" d="M-70.3-90.4c-8.4,0-15.3-6.8-15.3-15.3s6.9-15.2,15.3-15.2s15.3,6.8,15.3,15.3S-61.9-90.4-70.3-90.4z
										 M-70.3-123.2c-3.2,0-5.9-2.6-5.9-5.9s2.6-5.9,5.9-5.9s5.9,2.6,5.9,5.9S-67-123.2-70.3-123.2z"/>
								</g>
							</g>
						</g>
					</g>
				</g>
				<path class="st6" d="M34.3-138h172.2c1.6,0,2.9,1.3,2.9,2.9V84c0,1.6-1.3,2.9-2.9,2.9H34.3c-1.6,0-2.9-1.3-2.9-2.9v-219.1
					C31.4-136.7,32.7-138,34.3-138z"/>
				<g transform="translate(0,206)">
					<g>
						<text transform="matrix(1 0 0 1 102.1826 -137.6183)" class="st7 st8 st9">About</text>
					</g>
				</g>
			</g>
			<g transform="translate(1646, 430)">
				<path class="st0" d="M-1.2-140.5H171c1.1,0,2,0.9,2,2V80.6c0,1.1-0.9,2-2,2H-1.2c-1.1,0-2-0.9-2-2v-219.2
					C-3.1-139.6-2.2-140.5-1.2-140.5z"/>
				<g>
					<g>
						<g transform="translate( 0, 0 )">
							<g>
								<path class="st1" d="M-3.1-137.6c0-1.6,1.3-2.9,2.9-2.9H170c1.6,0,2.9,1.3,2.9,2.9v178h-176V-137.6z"/>
								<path class="st2" d="M-3.1-137.6c0-1.6,1.3-2.9,2.9-2.9H170c1.6,0,2.9,1.3,2.9,2.9v12.7h-176V-137.6z"/>
								<path class="st3" d="M4.2-129.8c-1.4,0-2.4-1.1-2.4-2.4c0-1.4,1.1-2.4,2.4-2.4s2.4,1.1,2.4,2.4
									C6.7-130.9,5.6-129.8,4.2-129.8z M12-129.8c-1.4,0-2.4-1.1-2.4-2.4c0-1.4,1.1-2.4,2.4-2.4s2.4,1.1,2.4,2.4
									C14.5-130.9,13.4-129.8,12-129.8z M19.9-129.8c-1.4,0-2.4-1.1-2.4-2.4c0-1.4,1.1-2.4,2.4-2.4s2.4,1.1,2.4,2.4
									S21.2-129.8,19.9-129.8z"/>
								<g transform="translate(10 26)">
									<path class="st2" d="M-1.4-141.1h43c1.1,0,2,0.9,2,2v27.4c0,1.1-0.9,2-2,2h-43c-1.1,0-2-0.9-2-2v-27.4
										C-3.3-140.2-2.5-141.1-1.4-141.1z"/>
									<path class="st10" d="M34.2-126.2c8,0,12.3,7,20.1,16.4H12.8C19.5-117.5,26.2-126.2,34.2-126.2z"/>
									<path class="st10" d="M7.4-129.2c8.6,0,14.5,9.2,22.1,19.4h-43.6C-6.7-119.9-1.2-129.2,7.4-129.2z"/>
									<circle class="st10" cx="22.1" cy="-132.9" r="4.9"/>
								</g>
								<g transform="translate(10 26)">
									<path class="st2" d="M-1.4-102h43c1.1,0,2,0.9,2,2v27.4c0,1.1-0.9,2-2,2h-43c-1.1,0-2-0.9-2-2V-100
										C-3.3-101.1-2.5-102-1.4-102z"/>
									<path class="st10" d="M34.2-87.1c8,0,12.3,7,20.1,16.4H12.8C19.5-78.4,26.2-87.1,34.2-87.1z"/>
									<path class="st10" d="M7.4-90c8.6,0,14.5,9.2,22.1,19.4h-43.6C-6.7-80.8-1.2-90,7.4-90z"/>
									<circle class="st10" cx="22.1" cy="-93.8" r="4.9"/>
								</g>
								<g transform="translate(10 26)">
									<path class="st2" d="M-1.4-63.3h43c1.1,0,2,0.9,2,2v27.4c0,1.1-0.9,2-2,2h-43c-1.1,0-2-0.9-2-2v-27.4
										C-3.3-62.5-2.5-63.3-1.4-63.3z"/>
									<path class="st10" d="M34.2-48.4c8,0,12.3,7,20.1,16.4H12.8C19.5-39.8,26.2-48.4,34.2-48.4z"/>
									<path class="st10" d="M7.4-51.4c8.6,0,14.5,9.2,22.1,19.4h-43.6C-6.7-42.2-1.2-51.4,7.4-51.4z"/>
									<circle class="st10" cx="22.1" cy="-55.1" r="4.9"/>
								</g>
								<g transform="translate(10 26)">
									<path class="st2" d="M-1.4-24.2h43c1.1,0,2,0.9,2,2V5.1c0,1.1-0.9,2-2,2h-43c-1.1,0-2-0.9-2-2v-27.4
										C-3.3-23.3-2.5-24.2-1.4-24.2z"/>
									<path class="st10" d="M34.2-9.3c8,0,12.3,7,20.1,16.4H12.8C19.5-0.6,26.2-9.3,34.2-9.3z"/>
									<path class="st10" d="M7.4-12.3c8.6,0,14.5,9.2,22.1,19.4h-43.6C-6.7-3-1.2-12.3,7.4-12.3z"/>
									<circle class="st10" cx="22.1" cy="-16" r="4.9"/>
								</g>
								<g transform="translate(10 26)">
									<path class="st2" d="M53.4-141.1h43c1.1,0,2,0.9,2,2v27.4c0,1.1-0.9,2-2,2h-43c-1.1,0-2-0.9-2-2v-27.4
										C51.4-140.2,52.3-141.1,53.4-141.1z"/>
									<path class="st10" d="M89-126.2c8,0,12.3,7,20.1,16.4H67.5C74.3-117.5,81-126.2,89-126.2z"/>
									<path class="st10" d="M62.2-129.2c8.6,0,14.5,9.2,22.1,19.4H40.7C48.1-119.9,53.6-129.2,62.2-129.2z"/>
									<circle class="st10" cx="76.9" cy="-132.9" r="4.9"/>
								</g>
								<g transform="translate(10 26)">
									<path class="st2" d="M53.4-102h43c1.1,0,2,0.9,2,2v27.4c0,1.1-0.9,2-2,2h-43c-1.1,0-2-0.9-2-2V-100
										C51.4-101.1,52.3-102,53.4-102z"/>
									<path class="st10" d="M89-87.1c8,0,12.3,7,20.1,16.4H67.5C74.3-78.4,81-87.1,89-87.1z"/>
									<path class="st10" d="M62.2-90c8.6,0,14.5,9.2,22.1,19.4H40.7C48.1-80.8,53.6-90,62.2-90z"/>
									<circle class="st10" cx="76.9" cy="-93.8" r="4.9"/>
								</g>
								<g transform="translate(10 26)">
									<path class="st2" d="M53.4-63.3h43c1.1,0,2,0.9,2,2v27.4c0,1.1-0.9,2-2,2h-43c-1.1,0-2-0.9-2-2v-27.4
										C51.4-62.5,52.3-63.3,53.4-63.3z"/>
									<path class="st10" d="M89-48.4c8,0,12.3,7,20.1,16.4H67.5C74.3-39.8,81-48.4,89-48.4z"/>
									<path class="st10" d="M62.2-51.4c8.6,0,14.5,9.2,22.1,19.4H40.7C48.1-42.2,53.6-51.4,62.2-51.4z"/>
									<circle class="st10" cx="76.9" cy="-55.1" r="4.9"/>
								</g>
								<g transform="translate(10 26)">
									<path class="st2" d="M53.4-24.2h43c1.1,0,2,0.9,2,2V5.1c0,1.1-0.9,2-2,2h-43c-1.1,0-2-0.9-2-2v-27.4
										C51.4-23.3,52.3-24.2,53.4-24.2z"/>
									<path class="st10" d="M89-9.3c8,0,12.3,7,20.1,16.4H67.5C74.3-0.6,81-9.3,89-9.3z"/>
									<path class="st10" d="M62.2-12.3c8.6,0,14.5,9.2,22.1,19.4H40.7C48.1-3,53.6-12.3,62.2-12.3z"/>
									<circle class="st10" cx="76.9" cy="-16" r="4.9"/>
								</g>
								<g transform="translate(10 26)">
									<path class="st2" d="M108.2-141.1h43c1.1,0,2,0.9,2,2v27.4c0,1.1-0.9,2-2,2h-43c-1.1,0-2-0.9-2-2v-27.4
										C106.2-140.2,107.1-141.1,108.2-141.1z"/>
									<path class="st10" d="M143.8-126.2c8,0,12.3,7,20.1,16.4h-41.6C129.1-117.5,135.7-126.2,143.8-126.2z"/>
									<path class="st10" d="M116.9-129.2c8.6,0,14.5,9.2,22.1,19.4H95.5C102.9-119.9,108.4-129.2,116.9-129.2z"/>
									<circle class="st10" cx="131.7" cy="-132.9" r="4.9"/>
								</g>
								<g transform="translate(10 26)">
									<path class="st2" d="M108.2-102h43c1.1,0,2,0.9,2,2v27.4c0,1.1-0.9,2-2,2h-43c-1.1,0-2-0.9-2-2V-100
										C106.2-101.1,107.1-102,108.2-102z"/>
									<path class="st10" d="M143.8-87.1c8,0,12.3,7,20.1,16.4h-41.6C129.1-78.4,135.7-87.1,143.8-87.1z"/>
									<path class="st10" d="M116.9-90c8.6,0,14.5,9.2,22.1,19.4H95.5C102.9-80.8,108.4-90,116.9-90z"/>
									<circle class="st10" cx="131.7" cy="-93.8" r="4.9"/>
								</g>
								<g transform="translate(10 26)">
									<path class="st2" d="M108.2-63.3h43c1.1,0,2,0.9,2,2v27.4c0,1.1-0.9,2-2,2h-43c-1.1,0-2-0.9-2-2v-27.4
										C106.2-62.5,107.1-63.3,108.2-63.3z"/>
									<path class="st10" d="M143.8-48.4c8,0,12.3,7,20.1,16.4h-41.6C129.1-39.8,135.7-48.4,143.8-48.4z"/>
									<path class="st10" d="M116.9-51.4c8.6,0,14.5,9.2,22.1,19.4H95.5C102.9-42.2,108.4-51.4,116.9-51.4z"/>
									<circle class="st10" cx="131.7" cy="-55.1" r="4.9"/>
								</g>
								<g transform="translate(10 26)">
									<path class="st2" d="M108.2-24.2h43c1.1,0,2,0.9,2,2V5.1c0,1.1-0.9,2-2,2h-43c-1.1,0-2-0.9-2-2v-27.4
										C106.2-23.3,107.1-24.2,108.2-24.2z"/>
									<path class="st10" d="M143.8-9.3c8,0,12.3,7,20.1,16.4h-41.6C129.1-0.6,135.7-9.3,143.8-9.3z"/>
									<path class="st10" d="M116.9-12.3c8.6,0,14.5,9.2,22.1,19.4H95.5C102.9-3,108.4-12.3,116.9-12.3z"/>
									<circle class="st10" cx="131.7" cy="-16" r="4.9"/>
								</g>
							</g>
						</g>
					</g>
				</g>
				<path class="st6" d="M-1.2-141.5H171c1.6,0,2.9,1.3,2.9,2.9V80.5c0,1.6-1.3,2.9-2.9,2.9H-1.2c-1.6,0-2.9-1.3-2.9-2.9v-219.1
					C-4.1-140.2-2.8-141.5-1.2-141.5z"/>
				<g transform="translate(0,206)">
					<g>
						<text transform="matrix(1 0 0 1 33.543 -141.1154)" class="st7 st8 st9">Food Cards - List</text>
					</g>
				</g>
			</g>
			<g transform="translate(1758, 750)">
				<path class="st0" d="M-3.6-147.5h172.2c1.1,0,2,0.9,2,2V73.6c0,1.1-0.9,2-2,2H-3.6c-1.1,0-2-0.9-2-2v-219.2
					C-5.6-146.6-4.7-147.5-3.6-147.5z"/>
				<g>
					<g>
						<g transform="translate( 0, 0 )">
							<g>
								<path class="st1" d="M-5.6-144.6c0-1.6,1.3-2.9,2.9-2.9h170.2c1.6,0,2.9,1.3,2.9,2.9v178h-176V-144.6z"/>
								<g transform="translate(10 26)">
									<path class="st11" d="M-3.8-148.1h74.3c1.1,0,2,0.9,2,2v108.6c0,1.1-0.9,2-2,2H-3.8c-1.1,0-2-0.9-2-2v-108.6
										C-5.8-147.2-4.9-148.1-3.8-148.1z"/>
									<g>
										<path id="_x39_o00i6ygxp7-item-a_1_" class="st3" d="M-3.8-148.1h74.3c1.1,0,2,0.9,2,2v108.6c0,1.1-0.9,2-2,2H-3.8
											c-1.1,0-2-0.9-2-2v-108.6C-5.8-147.2-4.9-148.1-3.8-148.1z"/>
									</g>
									<path class="st12" d="M55.6-91.4c13.6,0,20.2,23.8,33.5,55.8c-10.8,0-57.1,0-70.4,0C30.2-61.9,42-91.4,55.6-91.4z"/>
									<path class="st13" d="M11.8-102.1c15.4,0,25.4,31.7,39.1,66.5c-18.1,0-61.8,0-78.3,0C-14-70.4-3.6-102.1,11.8-102.1z"/>
									<circle class="st14" cx="37.2" cy="-117.8" r="6.8"/>
								</g>
								<g transform="translate(10 151)">
									<path class="st2" d="M-5.8-148.9c0-1.1,0.9-2,2-2h19.6c1.1,0,2,0.9,2,2v13.7c0,1.1-0.9,2-2,2H-3.8c-1.1,0-2-0.9-2-2V-148.9
										z"/>
									<path class="st10" d="M14.3-141.2c4.5,0,7.3,3.4,11.7,8c-3.6,0-19,0-23.5,0C6.4-137,9.8-141.2,14.3-141.2z"/>
									<path class="st10" d="M-2.4-142.8c4.8,0,8.3,4.6,12.6,9.6c-5.6,0-19.2,0-24.3,0C-10-138.2-7.2-142.8-2.4-142.8z"/>
									<circle class="st10" cx="6.8" cy="-145.2" r="2.9"/>
								</g>
								<g transform="translate(10 151)">
									<path class="st2" d="M21.6-148.9c0-1.1,0.9-2,2-2h19.6c1.1,0,2,0.9,2,2v13.7c0,1.1-0.9,2-2,2H23.6c-1.1,0-2-0.9-2-2V-148.9
										z"/>
									<path class="st10" d="M41.7-141.2c4.5,0,7.3,3.4,11.7,8c-3.6,0-19,0-23.5,0C33.8-137,37.2-141.2,41.7-141.2z"/>
									<path class="st10" d="M24.9-142.8c4.8,0,8.3,4.6,12.6,9.6c-5.6,0-19.2,0-24.3,0C17.3-138.2,20.2-142.8,24.9-142.8z"/>
									<circle class="st10" cx="34.2" cy="-145.2" r="2.9"/>
								</g>
								<g transform="translate(10 151)">
									<path class="st2" d="M50.4-148.9c0-1.1,0.9-2,2-2H72c1.1,0,2,0.9,2,2v13.7c0,1.1-0.9,2-2,2H52.3c-1.1,0-2-0.9-2-2v-13.7
										H50.4z"/>
									<path class="st10" d="M70.5-141.2c4.5,0,7.3,3.4,11.7,8c-3.6,0-19,0-23.5,0C62.6-137,66-141.2,70.5-141.2z"/>
									<path class="st10" d="M53.7-142.8c4.8,0,8.3,4.6,12.6,9.6c-5.6,0-19.2,0-24.3,0C46.1-138.2,49-142.8,53.7-142.8z"/>
									<circle class="st10" cx="63" cy="-145.2" r="2.9"/>
								</g>
								<g transform="translate(100 26)">
									<polygon class="st4" points="-7.8,-148.1 41.1,-148.1 41.1,-143.2 -7.8,-143.2 									"/>
									<polygon class="st4" points="-7.8,-139.3 21.6,-139.3 21.6,-134.4 -7.8,-134.4 									"/>
								</g>
								<polygon class="st4" points="92.2,-98.6 118.6,-98.6 118.6,-89.8 92.2,-89.8 								"/>
								<g transform="translate(100 99)">
									<polygon class="st2" points="-7.8,-136 60.7,-136 60.7,-133.1 -7.8,-133.1 									"/>
									<polygon class="st2" points="-7.8,-142.8 60.7,-142.8 60.7,-139.9 -7.8,-139.9 									"/>
									<polygon class="st2" points="-7.8,-149.7 60.7,-149.7 60.7,-146.8 -7.8,-146.8 									"/>
									<polygon class="st2" points="-7.8,-129.1 33.3,-129.1 33.3,-126.2 -7.8,-126.2 									"/>
								</g>
								<circle class="st2" cx="97.1" cy="-80" r="4.9"/>
								<circle class="st2" cx="110.8" cy="-80" r="4.9"/>
								<circle class="st2" cx="124.5" cy="-80" r="4.9"/>
								<circle class="st2" cx="138.2" cy="-80" r="4.9"/>
								<g transform="translate(100 78)">
									<path class="st4" d="M-5.8-149.2H46c1.1,0,2,0.9,2,2v6.8c0,1.1-0.9,2-2,2H-5.8c-1.1,0-2-0.9-2-2v-6.8
										C-7.8-148.3-6.9-149.2-5.8-149.2z"/>
									<path class="st5" d="M-5.8-148.2H46c0.5,0,1,0.4,1,1v6.8c0,0.5-0.4,1-1,1H-5.8c-0.5,0-1-0.4-1-1v-6.8
										C-6.8-147.8-6.3-148.2-5.8-148.2z"/>
									<polygon class="st2" points="-3.8,-145.3 27.5,-145.3 27.5,-142.4 -3.8,-142.4 									"/>
									<polygon class="st3" points="40.7,-142.4 38.2,-145.3 43.1,-145.3 									"/>
								</g>
								<path class="st4" d="M92.2-18.4c0-1.1,0.9-1.9,2-1.9h26.4c1.1,0,2,0.9,2,1.9v6.9c0,1.1-0.9,1.9-2,1.9H94.2
									c-1.1,0-2-0.9-2-1.9V-18.4z"/>
								<path class="st2" d="M-5.6-144.6c0-1.6,1.3-2.9,2.9-2.9h170.2c1.6,0,2.9,1.3,2.9,2.9v12.7h-176V-144.6z"/>
								<path class="st3" d="M1.8-136.8c-1.4,0-2.4-1.1-2.4-2.4s1.1-2.4,2.4-2.4s2.4,1.1,2.4,2.4S3.1-136.8,1.8-136.8z M9.6-136.8
									c-1.4,0-2.4-1.1-2.4-2.4s1.1-2.4,2.4-2.4s2.4,1.1,2.4,2.4S10.9-136.8,9.6-136.8z M17.4-136.8c-1.4,0-2.4-1.1-2.4-2.4
									s1.1-2.4,2.4-2.4s2.4,1.1,2.4,2.4S18.8-136.8,17.4-136.8z"/>
							</g>
						</g>
					</g>
				</g>
				<path class="st6" d="M-3.6-148.5h172.2c1.6,0,2.9,1.3,2.9,2.9V73.5c0,1.6-1.3,2.9-2.9,2.9H-3.6c-1.6,0-2.9-1.3-2.9-2.9v-219.1
					C-6.6-147.2-5.2-148.5-3.6-148.5z"/>
				<g transform="translate(0,206)">
					<g>
						<text transform="matrix(1 0 0 1 39.4365 -148.1115)" class="st7 st8 st9">Listing Details</text>
					</g>
				</g>
			</g>
			<g transform="translate(918, 14)">
				<path class="st0" d="M14.7-131.4h172.2c1.1,0,2,0.9,2,2V89.7c0,1.1-0.9,2-2,2H14.7c-1.1,0-2-0.9-2-2v-219.2
					C12.8-130.6,13.7-131.4,14.7-131.4z"/>
				<g>
					<g>
						<g transform="translate( 0, 0 )">
							<g>
								<path class="st1" d="M12.8-128.5c0-1.6,1.3-2.9,2.9-2.9h170.2c1.6,0,2.9,1.3,2.9,2.9v178h-176V-128.5z"/>
								<path class="st2" d="M12.8-128.5c0-1.6,1.3-2.9,2.9-2.9h170.2c1.6,0,2.9,1.3,2.9,2.9v12.7h-176V-128.5z"/>
								<path class="st3" d="M20.1-120.7c-1.4,0-2.4-1.1-2.4-2.4c0-1.4,1.1-2.4,2.4-2.4c1.4,0,2.4,1.1,2.4,2.4
									C22.6-121.8,21.5-120.7,20.1-120.7z M27.9-120.7c-1.4,0-2.4-1.1-2.4-2.4c0-1.4,1.1-2.4,2.4-2.4c1.4,0,2.4,1.1,2.4,2.4
									C30.4-121.8,29.3-120.7,27.9-120.7z M35.8-120.7c-1.4,0-2.4-1.1-2.4-2.4c0-1.4,1.1-2.4,2.4-2.4c1.4,0,2.4,1.1,2.4,2.4
									C38.2-121.8,37.1-120.7,35.8-120.7z"/>
								<g transform="translate(10 57)">
									<path class="st11" d="M14.5-132.7h152.6c1.1,0,2,0.9,2,2v76.3c0,1.1-0.9,2-2,2H14.5c-1.1,0-2-0.9-2-2v-76.3
										C12.6-131.8,13.4-132.7,14.5-132.7z"/>
									<g>
										<path id="_x32_bwnfxtjskh-project-a_1_" class="st3" d="M14.5-132.7h152.6c1.1,0,2,0.9,2,2v76.3c0,1.1-0.9,2-2,2H14.5
											c-1.1,0-2-0.9-2-2v-76.3C12.6-131.8,13.4-132.7,14.5-132.7z"/>
									</g>
									<path class="st12" d="M133.4-95.5c23.2,0,34.5,18.4,57.2,43c-18.5,0-97.5,0-120.3,0C89.9-72.8,110.2-95.5,133.4-95.5z"/>
									<path class="st13" d="M56.1-102.4c24.8,0,40.9,23.8,63.1,49.9c-29.1,0-99.7,0-126.2,0C14.4-78.6,31.3-102.4,56.1-102.4z"/>
									<circle class="st14" cx="97.7" cy="-111.2" r="8.8"/>
								</g>
								<polygon class="st2" points="39.2,16.3 163.4,16.3 163.4,19.2 39.2,19.2 								"/>
								<polygon class="st2" points="39.2,23.1 163.4,23.1 163.4,26 39.2,26 								"/>
								<polygon class="st2" points="39.2,30 163.4,30 163.4,32.9 39.2,32.9 								"/>
								<polygon class="st2" points="53.9,36.8 147.8,36.8 147.8,39.7 53.9,39.7 								"/>
								<polygon class="st4" points="85.2,-106 116.5,-106 116.5,-98.2 85.2,-98.2 								"/>
								<polygon class="st4" points="65.6,-93.3 136,-93.3 136,-85.5 65.6,-85.5 								"/>
							</g>
						</g>
					</g>
				</g>
				<path class="st6" d="M14.7-132.4h172.2c1.6,0,2.9,1.3,2.9,2.9V89.6c0,1.6-1.3,2.9-2.9,2.9H14.7c-1.6,0-2.9-1.3-2.9-2.9v-219.1
					C11.8-131.1,13.1-132.4,14.7-132.4z"/>
				<g transform="translate(0,206)">
					<g>
						<text transform="matrix(1 0 0 1 51.1885 -132.0216)" class="st7 st8 st9">Feedback Home</text>
					</g>
				</g>
			</g>
			<g transform="translate(470, 270)">
				<path class="st0" d="M24.5-137h172.2c1.1,0,2,0.9,2,2V84.1c0,1.1-0.9,2-2,2H24.5c-1.1,0-2-0.9-2-2v-219.2
					C22.6-136.2,23.5-137,24.5-137z"/>
				<g>
					<g>
						<g transform="translate( 0, 0 )">
							<g>
								<path class="st1" d="M22.6-134.1c0-1.6,1.3-2.9,2.9-2.9h170.2c1.6,0,2.9,1.3,2.9,2.9v178h-176V-134.1z"/>
								<path class="st2" d="M22.6-134.1c0-1.6,1.3-2.9,2.9-2.9h170.2c1.6,0,2.9,1.3,2.9,2.9v12.7h-176V-134.1z"/>
								<path class="st3" d="M29.9-126.3c-1.4,0-2.4-1.1-2.4-2.4c0-1.4,1.1-2.4,2.4-2.4s2.4,1.1,2.4,2.4
									C32.4-127.4,31.3-126.3,29.9-126.3z M37.7-126.3c-1.4,0-2.4-1.1-2.4-2.4c0-1.4,1.1-2.4,2.4-2.4c1.4,0,2.4,1.1,2.4,2.4
									C40.2-127.4,39.1-126.3,37.7-126.3z M45.6-126.3c-1.4,0-2.4-1.1-2.4-2.4c0-1.4,1.1-2.4,2.4-2.4c1.4,0,2.4,1.1,2.4,2.4
									S46.9-126.3,45.6-126.3z"/>
								<polygon class="st4" points="120.4,-55.8 169.3,-55.8 169.3,-51 120.4,-51 								"/>
								<polygon class="st4" points="32.4,-6 81.3,-6 81.3,-1.1 32.4,-1.1 								"/>
								<g transform="translate(100 93)">
									<polygon class="st2" points="20.4,-125.4 88.9,-125.4 88.9,-122.4 20.4,-122.4 									"/>
									<polygon class="st2" points="20.4,-132.2 88.9,-132.2 88.9,-129.3 20.4,-129.3 									"/>
									<polygon class="st2" points="20.4,-139.1 88.9,-139.1 88.9,-136.1 20.4,-136.1 									"/>
									<polygon class="st2" points="20.4,-118.5 61.5,-118.5 61.5,-115.6 20.4,-115.6 									"/>
								</g>
								<g transform="translate(10 144)">
									<polygon class="st2" points="22.4,-126.5 90.8,-126.5 90.8,-123.5 22.4,-123.5 									"/>
									<polygon class="st2" points="22.4,-133.3 90.8,-133.3 90.8,-130.4 22.4,-130.4 									"/>
									<polygon class="st2" points="22.4,-140.2 90.8,-140.2 90.8,-137.2 22.4,-137.2 									"/>
									<polygon class="st2" points="22.4,-119.6 63.4,-119.6 63.4,-116.7 22.4,-116.7 									"/>
								</g>
								<g transform="translate(10 81)">
									<path class="st2" d="M24.3-138.8h64.6c1.1,0,2,0.9,2,2v38.1c0,1.1-0.9,2-2,2H24.3c-1.1,0-2-0.9-2-2v-38.1
										C22.4-137.9,23.2-138.8,24.3-138.8z"/>
									<path class="st10" d="M77.1-118.8c11.7,0,17.9,9.4,29.3,22H45.8C55.7-107.1,65.4-118.8,77.1-118.8z"/>
									<path class="st10" d="M38-122.8c12.5,0,21.1,12.4,32.3,26H6.7C17.5-110.4,25.5-122.8,38-122.8z"/>
									<circle class="st10" cx="59.5" cy="-127.8" r="4.9"/>
								</g>
								<g transform="translate(10 81)">
									<path class="st2" d="M112-88.4h64.6c1.1,0,2,0.9,2,2v38.1c0,1.1-0.9,2-2,2H112c-1.1,0-2-0.9-2-2v-38.2
										C110.1-87.5,111-88.4,112-88.4z"/>
									<path class="st10" d="M164.9-68.4c11.7,0,17.9,9.4,29.3,22h-60.6C143.5-56.8,153.2-68.4,164.9-68.4z"/>
									<path class="st10" d="M125.7-72.4c12.5,0,21.1,12.4,32.3,26H94.4C105.2-60,113.2-72.4,125.7-72.4z"/>
									<circle class="st10" cx="147.3" cy="-77.4" r="4.9"/>
								</g>
								<g transform="translate(26 21)">
									<circle class="st3" cx="29.3" cy="-130.2" r="7.3"/>
									<polygon class="st5" points="29.3,-128 26.8,-126.6 27.3,-129.5 25.2,-131.5 28.1,-131.9 29.3,-134.6 30.6,-131.9 
										33.5,-131.5 31.4,-129.5 31.9,-126.6 									"/>
								</g>
								<g transform="translate(10 42)">
									<polygon class="st4" points="32.1,-137.9 57.6,-137.9 57.6,-133.1 32.1,-133.1 									"/>
									<polygon class="st2" points="22.4,-121.3 67.4,-121.3 67.4,-118.4 22.4,-118.4 									"/>
									<polygon class="st2" points="22.4,-128.2 67.4,-128.2 67.4,-125.2 22.4,-125.2 									"/>
									<polygon class="st2" points="32.1,-114.5 57.6,-114.5 57.6,-111.5 32.1,-111.5 									"/>
								</g>
								<g transform="translate(26 21)">
									<circle class="st3" cx="85.1" cy="-130.2" r="7.3"/>
									<polygon class="st5" points="85.1,-128 82.5,-126.6 83,-129.5 80.9,-131.5 83.8,-131.9 85.1,-134.6 86.4,-131.9 
										89.3,-131.5 87.2,-129.5 87.7,-126.6 									"/>
								</g>
								<g transform="translate(10 42)">
									<polygon class="st4" points="87.9,-137.9 113.3,-137.9 113.3,-133.1 87.9,-133.1 									"/>
									<polygon class="st2" points="78.1,-121.3 123.1,-121.3 123.1,-118.4 78.1,-118.4 									"/>
									<polygon class="st2" points="78.1,-128.2 123.1,-128.2 123.1,-125.2 78.1,-125.2 									"/>
									<polygon class="st2" points="87.9,-114.5 113.3,-114.5 113.3,-111.5 87.9,-111.5 									"/>
								</g>
								<g transform="translate(26 21)">
									<circle class="st3" cx="140.9" cy="-130.2" r="7.3"/>
									<polygon class="st5" points="140.9,-128 138.3,-126.6 138.8,-129.5 136.7,-131.5 139.6,-131.9 140.9,-134.6 142.2,-131.9 
										145,-131.5 143,-129.5 143.4,-126.6 									"/>
								</g>
								<g transform="translate(10 42)">
									<polygon class="st4" points="143.7,-137.9 169.1,-137.9 169.1,-133.1 143.7,-133.1 									"/>
									<polygon class="st2" points="133.9,-121.3 178.9,-121.3 178.9,-118.4 133.9,-118.4 									"/>
									<polygon class="st2" points="133.9,-128.2 178.9,-128.2 178.9,-125.2 133.9,-125.2 									"/>
									<polygon class="st2" points="143.7,-114.5 169.1,-114.5 169.1,-111.5 143.7,-111.5 									"/>
								</g>
							</g>
						</g>
					</g>
				</g>
				<path class="st6" d="M24.5-138h172.2c1.6,0,2.9,1.3,2.9,2.9V84c0,1.6-1.3,2.9-2.9,2.9H24.5c-1.6,0-2.9-1.3-2.9-2.9v-219.1
					C21.6-136.7,22.9-138,24.5-138z"/>
				<g transform="translate(0,206)">
					<g>
						<text transform="matrix(1 0 0 1 72.333 -137.6183)" class="st7 st8 st9">Our Services</text>
					</g>
				</g>
			</g>
			<g transform="translate(694, 270)">
				<path class="st0" d="M19.6-137h172.2c1.1,0,2,0.9,2,2V84.1c0,1.1-0.9,2-2,2H19.6c-1.1,0-2-0.9-2-2v-219.2
					C17.7-136.2,18.6-137,19.6-137z"/>
				<g>
					<g>
						<g transform="translate( 0, 0 )">
							<g>
								<path class="st1" d="M17.7-134.1c0-1.6,1.3-2.9,2.9-2.9h170.2c1.6,0,2.9,1.3,2.9,2.9v178h-176V-134.1z"/>
								<path class="st2" d="M17.7-134.1c0-1.6,1.3-2.9,2.9-2.9h170.2c1.6,0,2.9,1.3,2.9,2.9v12.7h-176V-134.1z"/>
								<path class="st3" d="M25-126.3c-1.4,0-2.4-1.1-2.4-2.4c0-1.4,1.1-2.4,2.4-2.4c1.4,0,2.4,1.1,2.4,2.4
									C27.5-127.4,26.4-126.3,25-126.3z M32.8-126.3c-1.4,0-2.4-1.1-2.4-2.4c0-1.4,1.1-2.4,2.4-2.4c1.4,0,2.4,1.1,2.4,2.4
									C35.3-127.4,34.2-126.3,32.8-126.3z M40.7-126.3c-1.4,0-2.4-1.1-2.4-2.4c0-1.4,1.1-2.4,2.4-2.4c1.4,0,2.4,1.1,2.4,2.4
									C43.1-127.4,42-126.3,40.7-126.3z"/>
								<g transform="translate(12 36)">
									<g>
										<circle id="_x39_n77sdwkh3i-team-c_1_" class="st3" cx="35" cy="-120.2" r="17.6"/>
									</g>
									<path class="st4" d="M35-88.5c-8.4,0-15.3-6.8-15.3-15.3S26.6-119,35-119s15.3,6.8,15.3,15.3S43.5-88.5,35-88.5z M35-121.4
										c-3.2,0-5.9-2.6-5.9-5.9c0-3.3,2.6-5.9,5.9-5.9s5.9,2.6,5.9,5.9C40.9-124,38.3-121.4,35-121.4z"/>
								</g>
								<g transform="translate(10 77)">
									<polygon class="st4" points="17.5,-138.7 56.6,-138.7 56.6,-133.8 17.5,-133.8 									"/>
									<polygon class="st4" points="25.3,-129.9 48.8,-129.9 48.8,-125 25.3,-125 									"/>
								</g>
								<g transform="translate(12 36)">
									<g>
										<circle id="_x39_n77sdwkh3i-team-c_4_" class="st3" cx="93.7" cy="-120.2" r="17.6"/>
									</g>
									<path class="st4" d="M93.7-88.5c-8.4,0-15.3-6.8-15.3-15.3s6.8-15.3,15.3-15.3s15.3,6.9,15.3,15.3S102.1-88.5,93.7-88.5z
										 M93.7-121.4c-3.2,0-5.9-2.6-5.9-5.9c0-3.3,2.6-5.9,5.9-5.9c3.2,0,5.9,2.6,5.9,5.9C99.6-124,97-121.4,93.7-121.4z"/>
								</g>
								<g transform="translate(10 77)">
									<polygon class="st4" points="76.2,-138.7 115.3,-138.7 115.3,-133.8 76.2,-133.8 									"/>
									<polygon class="st4" points="84,-129.9 107.5,-129.9 107.5,-125 84,-125 									"/>
								</g>
								<g transform="translate(12 36)">
									<g>
										<circle id="_x39_n77sdwkh3i-team-c_6_" class="st3" cx="152.4" cy="-120.2" r="17.6"/>
									</g>
									<path class="st4" d="M152.4-88.5c-8.4,0-15.3-6.8-15.3-15.3s6.8-15.3,15.3-15.3s15.3,6.8,15.3,15.3S160.8-88.5,152.4-88.5z
										 M152.4-121.4c-3.2,0-5.9-2.6-5.9-5.9c0-3.3,2.6-5.9,5.9-5.9s5.9,2.6,5.9,5.9C158.3-124,155.6-121.4,152.4-121.4z"/>
								</g>
								<g transform="translate(10 77)">
									<polygon class="st4" points="134.8,-138.7 174,-138.7 174,-133.8 134.8,-133.8 									"/>
									<polygon class="st4" points="142.7,-129.9 166.1,-129.9 166.1,-125 142.7,-125 									"/>
								</g>
								<g transform="translate(12 36)">
									<g>
										<circle id="_x39_n77sdwkh3i-team-c_12_" class="st3" cx="35" cy="-46.9" r="17.6"/>
									</g>
									<path class="st4" d="M35-15.2c-8.4,0-15.3-6.8-15.3-15.3S26.5-45.8,35-45.8S50.3-39,50.3-30.5S43.5-15.2,35-15.2z M35-48.1
										c-3.2,0-5.9-2.6-5.9-5.9s2.6-5.9,5.9-5.9s5.9,2.6,5.9,5.9C40.9-50.7,38.3-48.1,35-48.1z"/>
								</g>
								<g transform="translate(10 77)">
									<polygon class="st4" points="17.5,-65.4 56.6,-65.4 56.6,-60.5 17.5,-60.5 									"/>
									<polygon class="st4" points="25.3,-56.6 48.8,-56.6 48.8,-51.7 25.3,-51.7 									"/>
								</g>
								<g transform="translate(12 36)">
									<g>
										<circle id="_x39_n77sdwkh3i-team-c_10_" class="st3" cx="93.7" cy="-46.9" r="17.6"/>
									</g>
									<path class="st4" d="M93.7-15.2c-8.4,0-15.3-6.8-15.3-15.3s6.8-15.3,15.3-15.3S109-38.9,109-30.5S102.1-15.2,93.7-15.2z
										 M93.7-48.1c-3.2,0-5.9-2.6-5.9-5.9s2.6-5.9,5.9-5.9c3.2,0,5.9,2.6,5.9,5.9C99.6-50.7,97-48.1,93.7-48.1z"/>
								</g>
								<g transform="translate(10 77)">
									<polygon class="st4" points="76.2,-65.4 115.3,-65.4 115.3,-60.5 76.2,-60.5 									"/>
									<polygon class="st4" points="84,-56.6 107.5,-56.6 107.5,-51.7 84,-51.7 									"/>
								</g>
								<g transform="translate(12 36)">
									<g>
										<circle id="_x39_n77sdwkh3i-team-c_8_" class="st3" cx="152.4" cy="-46.9" r="17.6"/>
									</g>
									<path class="st4" d="M152.4-15.2c-8.4,0-15.3-6.8-15.3-15.3s6.8-15.3,15.3-15.3s15.3,6.8,15.3,15.3S160.8-15.2,152.4-15.2z
										 M152.4-48.1c-3.2,0-5.9-2.6-5.9-5.9s2.6-5.9,5.9-5.9s5.9,2.6,5.9,5.9C158.3-50.7,155.6-48.1,152.4-48.1z"/>
								</g>
								<g transform="translate(10 77)">
									<polygon class="st4" points="134.8,-65.4 174,-65.4 174,-60.5 134.8,-60.5 									"/>
									<polygon class="st4" points="142.7,-56.6 166.1,-56.6 166.1,-51.7 142.7,-51.7 									"/>
								</g>
							</g>
						</g>
					</g>
				</g>
				<path class="st6" d="M19.6-138h172.2c1.6,0,2.9,1.3,2.9,2.9V84c0,1.6-1.3,2.9-2.9,2.9H19.6c-1.6,0-2.9-1.3-2.9-2.9v-219.1
					C16.7-136.7,18-138,19.6-138z"/>
				<g transform="translate(0,206)">
					<g>
						<text transform="matrix(1 0 0 1 66.3135 -137.6183)" class="st7 st8 st9">Testimonials</text>
					</g>
				</g>
			</g>
			<g transform="translate(918, 270)">
				<path class="st0" d="M14.7-137h172.2c1.1,0,2,0.9,2,2V84.1c0,1.1-0.9,2-2,2H14.7c-1.1,0-2-0.9-2-2v-219.2
					C12.8-136.2,13.7-137,14.7-137z"/>
				<g>
					<g>
						<g transform="translate( 0, 0 )">
							<g>
								<path class="st1" d="M12.8-134.1c0-1.6,1.3-2.9,2.9-2.9h170.2c1.6,0,2.9,1.3,2.9,2.9v178h-176V-134.1z"/>
								<path class="st2" d="M12.8-134.1c0-1.6,1.3-2.9,2.9-2.9h170.2c1.6,0,2.9,1.3,2.9,2.9v12.7h-176V-134.1z"/>
								<path class="st3" d="M20.1-126.3c-1.4,0-2.4-1.1-2.4-2.4c0-1.4,1.1-2.4,2.4-2.4c1.4,0,2.4,1.1,2.4,2.4
									C22.6-127.4,21.5-126.3,20.1-126.3z M27.9-126.3c-1.4,0-2.4-1.1-2.4-2.4c0-1.4,1.1-2.4,2.4-2.4c1.4,0,2.4,1.1,2.4,2.4
									C30.4-127.4,29.3-126.3,27.9-126.3z M35.8-126.3c-1.4,0-2.4-1.1-2.4-2.4c0-1.4,1.1-2.4,2.4-2.4c1.4,0,2.4,1.1,2.4,2.4
									S37.1-126.3,35.8-126.3z"/>
								<polygon class="st4" points="51.9,-81.3 91,-81.3 91,-76.4 51.9,-76.4 								"/>
								<polygon class="st4" points="51.9,-38.2 91,-38.2 91,-33.3 51.9,-33.3 								"/>
								<polygon class="st4" points="51.9,4.8 91,4.8 91,9.7 51.9,9.7 								"/>
								<g transform="translate(40 67)">
									<polygon class="st2" points="11.9,-124.8 80.4,-124.8 80.4,-121.9 11.9,-121.9 									"/>
									<polygon class="st2" points="11.9,-131.6 80.4,-131.6 80.4,-128.7 11.9,-128.7 									"/>
									<polygon class="st2" points="11.9,-138.5 80.4,-138.5 80.4,-135.6 11.9,-135.6 									"/>
									<polygon class="st2" points="11.9,-118 53,-118 53,-115 11.9,-115 									"/>
								</g>
								<g transform="translate(40 111)">
									<polygon class="st2" points="11.9,-125.8 80.4,-125.8 80.4,-122.8 11.9,-122.8 									"/>
									<polygon class="st2" points="11.9,-132.6 80.4,-132.6 80.4,-129.7 11.9,-129.7 									"/>
									<polygon class="st2" points="11.9,-139.5 80.4,-139.5 80.4,-136.5 11.9,-136.5 									"/>
									<polygon class="st2" points="11.9,-118.9 53,-118.9 53,-116 11.9,-116 									"/>
								</g>
								<g transform="translate(20 26)">
									<circle class="st3" cx="19.7" cy="-130.3" r="7.3"/>
									<polygon class="st5" points="19.7,-128.1 17.1,-126.7 17.6,-129.6 15.5,-131.6 18.4,-132 19.7,-134.7 21,-132 23.9,-131.6 
										21.8,-129.6 22.3,-126.7 									"/>
								</g>
								<polygon class="st4" points="51.9,-108.7 110.6,-108.7 110.6,-100.8 51.9,-100.8 								"/>
								<rect x="39.2" y="-96.9" class="st10" width="1" height="102.7"/>
								<circle class="st15" cx="39.7" cy="-78.8" r="1.5"/>
								<circle class="st15" cx="39.7" cy="-35.8" r="1.5"/>
								<circle class="st15" cx="39.7" cy="7.2" r="1.5"/>
								<g transform="translate(40 155)">
									<polygon class="st2" points="11.9,-140.4 80.4,-140.4 80.4,-137.5 11.9,-137.5 									"/>
									<polygon class="st2" points="11.9,-133.6 53,-133.6 53,-130.6 11.9,-130.6 									"/>
								</g>
							</g>
						</g>
					</g>
				</g>
				<path class="st6" d="M14.7-138h172.2c1.6,0,2.9,1.3,2.9,2.9V84c0,1.6-1.3,2.9-2.9,2.9H14.7c-1.6,0-2.9-1.3-2.9-2.9v-219.1
					C11.8-136.7,13.1-138,14.7-138z"/>
				<g transform="translate(0,206)">
					<g>
						<text transform="matrix(1 0 0 1 75.4932 -137.6183)" class="st7 st8 st9">The App</text>
					</g>
				</g>
			</g>
			<g transform="translate(246, 270)">
				<path class="st0" d="M29.4-137h172.2c1.1,0,2,0.9,2,2V84.1c0,1.1-0.9,2-2,2H29.4c-1.1,0-2-0.9-2-2v-219.2
					C27.5-136.2,28.4-137,29.4-137z"/>
				<g>
					<g>
						<g transform="translate( 0, 0 )">
							<g>
								<path class="st1" d="M27.5-134.1c0-1.6,1.3-2.9,2.9-2.9h170.2c1.6,0,2.9,1.3,2.9,2.9v178h-176V-134.1z"/>
								<path class="st2" d="M27.5-134.1c0-1.6,1.3-2.9,2.9-2.9h170.2c1.6,0,2.9,1.3,2.9,2.9v12.7h-176V-134.1z"/>
								<path class="st3" d="M34.8-126.3c-1.4,0-2.4-1.1-2.4-2.4c0-1.4,1.1-2.4,2.4-2.4s2.4,1.1,2.4,2.4
									C37.3-127.4,36.2-126.3,34.8-126.3z M42.6-126.3c-1.4,0-2.4-1.1-2.4-2.4c0-1.4,1.1-2.4,2.4-2.4s2.4,1.1,2.4,2.4
									C45.1-127.4,44-126.3,42.6-126.3z M50.5-126.3c-1.4,0-2.4-1.1-2.4-2.4c0-1.4,1.1-2.4,2.4-2.4c1.4,0,2.4,1.1,2.4,2.4
									S51.8-126.3,50.5-126.3z"/>
								<polygon class="st2" points="53.9,-93 178.1,-93 178.1,-90.1 53.9,-90.1 								"/>
								<polygon class="st2" points="53.9,-37.3 178.1,-37.3 178.1,-34.3 53.9,-34.3 								"/>
								<polygon class="st2" points="53.9,-61.7 178.1,-61.7 178.1,-58.8 53.9,-58.8 								"/>
								<polygon class="st2" points="53.9,-86.2 178.1,-86.2 178.1,-83.2 53.9,-83.2 								"/>
								<polygon class="st2" points="53.9,-30.4 178.1,-30.4 178.1,-27.5 53.9,-27.5 								"/>
								<polygon class="st2" points="53.9,10.7 178.1,10.7 178.1,13.6 53.9,13.6 								"/>
								<polygon class="st2" points="53.9,-54.9 170.3,-54.9 170.3,-51.9 53.9,-51.9 								"/>
								<polygon class="st2" points="53.9,-79.3 178.1,-79.3 178.1,-76.4 53.9,-76.4 								"/>
								<polygon class="st2" points="53.9,-23.6 178.1,-23.6 178.1,-20.6 53.9,-20.6 								"/>
								<polygon class="st2" points="53.9,17.5 178.1,17.5 178.1,20.5 53.9,20.5 								"/>
								<polygon class="st2" points="53.9,-72.5 147.8,-72.5 147.8,-69.5 53.9,-69.5 								"/>
								<polygon class="st2" points="53.9,-16.7 167.4,-16.7 167.4,-13.8 53.9,-13.8 								"/>
								<polygon class="st2" points="53.9,24.4 98.9,24.4 98.9,27.3 53.9,27.3 								"/>
								<polygon class="st2" points="53.9,-48 135.1,-48 135.1,-45.1 53.9,-45.1 								"/>
								<g transform="translate(27 26)">
									<polygon class="st4" points="26.9,-137.6 75.8,-137.6 75.8,-132.7 26.9,-132.7 									"/>
									<polygon class="st4" points="26.9,-128.8 56.2,-128.8 56.2,-123.9 26.9,-123.9 									"/>
								</g>
								<polygon class="st4" points="53.9,0.9 102.8,0.9 102.8,5.8 53.9,5.8 								"/>
							</g>
						</g>
					</g>
				</g>
				<path class="st6" d="M29.4-138h172.2c1.6,0,2.9,1.3,2.9,2.9V84c0,1.6-1.3,2.9-2.9,2.9H29.4c-1.6,0-2.9-1.3-2.9-2.9v-219.1
					C26.5-136.7,27.8-138,29.4-138z"/>
				<g transform="translate(0,206)">
					<g>
						<text transform="matrix(1 0 0 1 76.7246 -137.6183)" class="st7 st8 st9">The Problem</text>
					</g>
				</g>
			</g>
			<g transform="translate(1366, 270)">
				<path class="st0" d="M5-137h172.2c1.1,0,2,0.9,2,2V84.1c0,1.1-0.9,2-2,2H5c-1.1,0-2-0.9-2-2v-219.2C3-136.2,3.9-137,5-137z"/>
				<g>
					<g>
						<g transform="translate( 0, 0 )">
							<g>
								<path class="st1" d="M3-134.1c0-1.6,1.3-2.9,2.9-2.9h170.2c1.6,0,2.9,1.3,2.9,2.9v178H3V-134.1z"/>
								<path class="st2" d="M3-134.1c0-1.6,1.3-2.9,2.9-2.9h170.2c1.6,0,2.9,1.3,2.9,2.9v12.7H3V-134.1z"/>
								<path class="st3" d="M10.3-126.3c-1.4,0-2.4-1.1-2.4-2.4c0-1.4,1.1-2.4,2.4-2.4s2.4,1.1,2.4,2.4
									C12.8-127.4,11.7-126.3,10.3-126.3z M18.2-126.3c-1.4,0-2.4-1.1-2.4-2.4c0-1.4,1.1-2.4,2.4-2.4c1.4,0,2.4,1.1,2.4,2.4
									S19.5-126.3,18.2-126.3z M26-126.3c-1.4,0-2.4-1.1-2.4-2.4c0-1.4,1.1-2.4,2.4-2.4s2.4,1.1,2.4,2.4S27.3-126.3,26-126.3z"/>
								<g transform="translate(26 26)">
									<circle class="st3" cx="9.8" cy="-130.3" r="7.3"/>
									<polygon class="st5" points="9.8,-128.1 7.2,-126.7 7.7,-129.6 5.6,-131.6 8.5,-132 9.8,-134.7 11.1,-132 13.9,-131.6 
										11.9,-129.6 12.3,-126.7 									"/>
								</g>
								<g transform="translate(26 26)">
									<circle class="st3" cx="65" cy="-130.3" r="7.3"/>
									<polygon class="st5" points="65,-128.1 62.4,-126.7 62.9,-129.6 60.8,-131.6 63.7,-132 65,-134.7 66.3,-132 69.2,-131.6 
										67.1,-129.6 67.6,-126.7 									"/>
								</g>
								<g transform="translate(10 47)">
									<polygon class="st4" points="12.6,-138.1 38,-138.1 38,-133.2 12.6,-133.2 									"/>
									<polygon class="st2" points="2.8,-121.4 47.8,-121.4 47.8,-118.5 2.8,-118.5 									"/>
									<polygon class="st2" points="2.8,-128.3 47.8,-128.3 47.8,-125.3 2.8,-125.3 									"/>
									<polygon class="st2" points="12.6,-114.6 38,-114.6 38,-111.6 12.6,-111.6 									"/>
								</g>
								<g transform="translate(10 47)">
									<polygon class="st4" points="68.3,-138.1 93.7,-138.1 93.7,-133.2 68.3,-133.2 									"/>
									<polygon class="st2" points="58.5,-121.4 103.5,-121.4 103.5,-118.5 58.5,-118.5 									"/>
									<polygon class="st2" points="58.5,-128.3 103.5,-128.3 103.5,-125.3 58.5,-125.3 									"/>
									<polygon class="st2" points="68.3,-114.6 93.7,-114.6 93.7,-111.6 68.3,-111.6 									"/>
								</g>
								<g transform="translate(26 26)">
									<circle class="st3" cx="120.8" cy="-130.3" r="7.3"/>
									<polygon class="st5" points="120.8,-128.1 118.2,-126.7 118.7,-129.6 116.6,-131.6 119.5,-132 120.8,-134.7 122.1,-132 
										125,-131.6 122.9,-129.6 123.4,-126.7 									"/>
								</g>
								<g transform="translate(10 47)">
									<polygon class="st4" points="124.1,-138.1 149.5,-138.1 149.5,-133.2 124.1,-133.2 									"/>
									<polygon class="st2" points="114.3,-121.4 159.3,-121.4 159.3,-118.5 114.3,-118.5 									"/>
									<polygon class="st2" points="114.3,-128.3 159.3,-128.3 159.3,-125.3 114.3,-125.3 									"/>
									<polygon class="st2" points="124.1,-114.6 149.5,-114.6 149.5,-111.6 124.1,-111.6 									"/>
								</g>
								<g transform="translate(26 26)">
									<circle class="st3" cx="9.8" cy="-74.5" r="7.3"/>
									<polygon class="st5" points="9.8,-72.3 7.2,-70.9 7.7,-73.8 5.6,-75.9 8.5,-76.3 9.8,-78.9 11.1,-76.3 13.9,-75.9 
										11.9,-73.8 12.3,-70.9 									"/>
								</g>
								<g transform="translate(26 26)">
									<circle class="st3" cx="65" cy="-74.5" r="7.3"/>
									<polygon class="st5" points="65,-72.3 62.4,-70.9 62.9,-73.8 60.8,-75.9 63.7,-76.3 65,-78.9 66.3,-76.3 69.2,-75.9 
										67.1,-73.8 67.6,-70.9 									"/>
								</g>
								<g transform="translate(10 47)">
									<polygon class="st4" points="12.6,-82.3 38,-82.3 38,-77.4 12.6,-77.4 									"/>
									<polygon class="st2" points="2.8,-65.7 47.8,-65.7 47.8,-62.7 2.8,-62.7 									"/>
									<polygon class="st2" points="2.8,-72.5 47.8,-72.5 47.8,-69.6 2.8,-69.6 									"/>
									<polygon class="st2" points="12.6,-58.8 38,-58.8 38,-55.9 12.6,-55.9 									"/>
								</g>
								<g transform="translate(10 47)">
									<polygon class="st4" points="68.3,-82.3 93.7,-82.3 93.7,-77.4 68.3,-77.4 									"/>
									<polygon class="st2" points="58.5,-65.7 103.5,-65.7 103.5,-62.7 58.5,-62.7 									"/>
									<polygon class="st2" points="58.5,-72.5 103.5,-72.5 103.5,-69.6 58.5,-69.6 									"/>
									<polygon class="st2" points="68.3,-58.8 93.7,-58.8 93.7,-55.9 68.3,-55.9 									"/>
								</g>
								<g transform="translate(26 26)">
									<circle class="st3" cx="120.8" cy="-74.5" r="7.3"/>
									<polygon class="st5" points="120.8,-72.3 118.2,-70.9 118.7,-73.8 116.6,-75.9 119.5,-76.3 120.8,-78.9 122.1,-76.3 
										125,-75.9 122.9,-73.8 123.4,-70.9 									"/>
								</g>
								<g transform="translate(10 47)">
									<polygon class="st4" points="124.1,-82.3 149.5,-82.3 149.5,-77.4 124.1,-77.4 									"/>
									<polygon class="st2" points="114.3,-65.7 159.3,-65.7 159.3,-62.7 114.3,-62.7 									"/>
									<polygon class="st2" points="114.3,-72.5 159.3,-72.5 159.3,-69.6 114.3,-69.6 									"/>
									<polygon class="st2" points="124.1,-58.8 149.5,-58.8 149.5,-55.9 124.1,-55.9 									"/>
								</g>
								<g transform="translate(10 158)">
									<polygon class="st2" points="2.8,-133.6 159.3,-133.6 159.3,-130.7 2.8,-130.7 									"/>
									<polygon class="st2" points="2.8,-140.5 159.3,-140.5 159.3,-137.5 2.8,-137.5 									"/>
									<polygon class="st2" points="2.8,-126.8 96.7,-126.8 96.7,-123.9 2.8,-123.9 									"/>
								</g>
								<polygon class="st4" points="12.8,7.7 61.7,7.7 61.7,12.6 12.8,12.6 								"/>
							</g>
						</g>
					</g>
				</g>
				<path class="st6" d="M5-138h172.2c1.6,0,2.9,1.3,2.9,2.9V84c0,1.6-1.3,2.9-2.9,2.9H5c-1.6,0-2.9-1.3-2.9-2.9v-219.1
					C2-136.7,3.3-138,5-138z"/>
				<g transform="translate(0,206)">
					<g>
						<text transform="matrix(1 0 0 1 67.1055 -137.6183)" class="st7 st8 st9">Contact</text>
					</g>
				</g>
			</g>
			<g transform="translate(1870, 430)">
				<path class="st0" d="M-6.1-140.5h172.2c1.1,0,2,0.9,2,2V80.6c0,1.1-0.9,2-2,2H-6.1c-1.1,0-2-0.9-2-2v-219.2
					C-8-139.6-7.1-140.5-6.1-140.5z"/>
				<g>
					<g>
						<g transform="translate( 0, 0 )">
							<g>
								<path class="st1" d="M-8-137.6c0-1.6,1.3-2.9,2.9-2.9h170.2c1.6,0,2.9,1.3,2.9,2.9v178H-8V-137.6z"/>
								<path class="st2" d="M-8-137.6c0-1.6,1.3-2.9,2.9-2.9h170.2c1.6,0,2.9,1.3,2.9,2.9v12.7H-8V-137.6z"/>
								<path class="st3" d="M-0.7-129.8c-1.4,0-2.4-1.1-2.4-2.4c0-1.4,1.1-2.4,2.4-2.4s2.4,1.1,2.4,2.4
									C1.8-130.9,0.7-129.8-0.7-129.8z M7.1-129.8c-1.4,0-2.4-1.1-2.4-2.4c0-1.4,1.1-2.4,2.4-2.4s2.4,1.1,2.4,2.4
									C9.6-130.9,8.5-129.8,7.1-129.8z M15-129.8c-1.4,0-2.4-1.1-2.4-2.4c0-1.4,1.1-2.4,2.4-2.4s2.4,1.1,2.4,2.4
									S16.3-129.8,15-129.8z"/>
								<g transform="translate(10 28)">
									<path class="st2" d="M-4.5-141.1h149c1.3,0,1.8,0.1,2.3,0.4s0.9,0.6,1.1,1.1c0.3,0.5,0.4,1,0.4,2.3v75.6
										c0,1.3-0.1,1.8-0.4,2.3c-0.3,0.5-0.6,0.9-1.1,1.1c-0.5,0.3-1,0.4-2.3,0.4h-149c-1.3,0-1.8-0.1-2.3-0.4s-0.9-0.6-1.1-1.1
										c-0.3-0.5-0.4-1-0.4-2.3v-75.7c0-1.3,0.1-1.8,0.4-2.3c0.3-0.5,0.6-0.9,1.1-1.1S-5.8-141.1-4.5-141.1z"/>
									<g class="st16">
										<g transform="translate(-12 -30)">
											<path class="st17" d="M15.5-11.4v-66c0-6.8,5.5-12.2,12.2-12.2h44c3.5,0,6.4,2.8,6.4,6.4v71.9H81v-72
												c0-5.1-4.2-9.3-9.3-9.3h-44c-8.4,0-15.2,6.8-15.2,15.2v66H15.5z"/>
											<polygon class="st17" points="37,-132.7 37,-79.8 40,-79.8 40,-132.7 											"/>
											<path class="st17" d="M112.8-51.5l-1.5,1.5v-1.5H112.8z M44.8-28.5v14.2h16.6v-33.9C52-46.6,44.8-38.4,44.8-28.5z
												 M64.9-51.5h46.5V-95c0-4.6-3.7-8.3-8.3-8.3H3.8v-2.9H103c6.2,0,11.2,5,11.2,11.2v46.5H64.9c-0.2,0-0.3,0-0.5,0
												c-1,0-2,0.1-2.9,0.3v-90.3h2.9v127.2H41.9v-17.1c0-11.5,8.5-21.1,19.6-22.7c1-0.1,1.9-0.2,2.9-0.2
												C64.6-51.5,64.7-51.5,64.9-51.5z"/>
											<path class="st17" d="M104.5-130.7L48.8-74.9l2.1,2.1l55.8-55.8L104.5-130.7z M27.2-53.4L-1.2-25l2.1,2.1l28.4-28.4
												L27.2-53.4z"/>
											<path class="st17" d="M39-50.5c6.8,0,12.7-5.9,12.7-12.7c0-7.7-5.8-13.7-12.7-13.7c-7.8,0-13.7,5.9-13.7,13.7
												C25.3-56.3,31.3-50.5,39-50.5z M39-47.6c-9.4,0-16.6-7.2-16.6-15.7c0-9.4,7.2-16.6,16.6-16.6c8.4,0,15.7,7.2,15.7,16.6
												C54.6-54.8,47.4-47.6,39-47.6z"/>
											<polygon class="st17" points="-8,-61.3 22.8,-61.3 22.8,-64.2 -8,-64.2 											"/>
											<path class="st17" d="M183.7-128.7h-38.1v28.4h38.1L183.7-128.7L183.7-128.7z M142.7-97.4v-34.3h44v69.4h-132v-2.9h129.1
												v-35.2H220v76.3h-75.3v-12.7h-45v24.5h-2.9v-27.4h50.9V-27h69.4v-70.4H142.7z"/>
											<path class="st17" d="M146.1-85.7c10.5,0,19.1,8.5,19.1,19.1v23l36.2,0.1v-67.6c-1.5,0-1.6,0-3.9,0c-4.2,0-8.7,0-13.4,0
												c-6,0-11.9,0-17.4,0c-10.2,0-18.7,0-24.9,0c-3.5,0-6.3,0-8.2,0c-0.6,0-1.2,0-1.6,0v25.4H146.1z M94.7-82.8v-57.7h2.9
												v54.8h34.2v63.6H0.7V-25h128.1v-87.6c0-1.7,1.7-1.7,1.7-1.5c1.1,0,1.9,0,2.9,0c1.9,0,4.7,0,8.2,0c6.2,0,14.7,0,24.9,0
												c5.5,0,11.4,0,17.4,0c4.7,0,9.2,0,13.4,0c2.3,0,2.3,0,3.9,0c1.2,0,1.2,0,1.4,0h1.5v73.4L162-40.8v-25.9
												c0-8.9-7.2-16.1-16.1-16.1L94.7-82.8z"/>
										</g>
									</g>
									<path class="st3" d="M81.7-86.4c3.9-2,6.8-6,6.8-9.8s-3.1-6.8-6.8-6.8c-3.8,0-6.8,3.1-6.8,6.8
										C74.9-92.4,77.8-88.3,81.7-86.4z"/>
								</g>
								<polygon class="st4" points="1.8,-20.2 50.7,-20.2 50.7,-15.3 1.8,-15.3 								"/>
								<polygon class="st4" points="89.8,-20.2 138.7,-20.2 138.7,-15.3 89.8,-15.3 								"/>
								<g transform="translate(10 133)">
									<polygon class="st2" points="-8.2,-129.7 60.2,-129.7 60.2,-126.8 -8.2,-126.8 									"/>
									<polygon class="st2" points="-8.2,-136.6 60.2,-136.6 60.2,-133.7 -8.2,-133.7 									"/>
									<polygon class="st2" points="-8.2,-143.4 60.2,-143.4 60.2,-140.5 -8.2,-140.5 									"/>
									<polygon class="st2" points="-8.2,-122.9 32.8,-122.9 32.8,-120 -8.2,-120 									"/>
								</g>
								<g transform="translate(100 133)">
									<polygon class="st2" points="-10.2,-129.7 58.3,-129.7 58.3,-126.8 -10.2,-126.8 									"/>
									<polygon class="st2" points="-10.2,-136.6 58.3,-136.6 58.3,-133.7 -10.2,-133.7 									"/>
									<polygon class="st2" points="-10.2,-143.4 58.3,-143.4 58.3,-140.5 -10.2,-140.5 									"/>
									<polygon class="st2" points="-10.2,-122.9 30.9,-122.9 30.9,-120 -10.2,-120 									"/>
								</g>
								<path class="st4" d="M1.8,21.8c0-1.1,0.9-1.9,2-1.9h26.4c1.1,0,2,0.9,2,1.9v6.9c0,1.1-0.9,1.9-2,1.9H3.7c-1.1,0-2-0.9-2-1.9
									L1.8,21.8L1.8,21.8z"/>
							</g>
						</g>
					</g>
				</g>
				<path class="st6" d="M-6.1-141.5h172.2c1.6,0,2.9,1.3,2.9,2.9V80.5c0,1.6-1.3,2.9-2.9,2.9H-6.1c-1.6,0-2.9-1.3-2.9-2.9v-219.1
					C-9-140.2-7.7-141.5-6.1-141.5z"/>
				<g transform="translate(0,206)">
					<g>
						<text transform="matrix(1 0 0 1 26.2168 -141.1154)" class="st7 st8 st9">Food Cards - Map</text>
					</g>
				</g>
			</g>
			<g transform="translate(1736, 256)">
				<path class="st18" d="M77.5-101.1c7.2-7.2,16.9-11.2,27-11.2s19.8,4,27,11.2s11.2,16.9,11.2,27s-4,19.8-11.2,27
					s-16.9,11.2-27,11.2s-19.8-4-27-11.2S66.3-64,66.3-74.1S70.3-93.9,77.5-101.1z"/>
				<g transform="translate(83, 35)">
					<text transform="matrix(1 0 0 1 -6.0098 -113.0333)" class="st7 st8 st9">Available</text>
					<text transform="matrix(1 0 0 1 6.0713 -93.4708)" class="st7 st8 st9">Food</text>
				</g>
			</g>
			<g transform="translate(2184, 256)">
				<path class="st18" d="M67.7-101.1c7.2-7.2,16.9-11.2,27-11.2s19.8,4,27,11.2s11.2,16.9,11.2,27s-4,19.8-11.2,27
					s-16.9,11.2-27,11.2s-19.8-4-27-11.2S56.5-64,56.5-74.1S60.5-93.9,67.7-101.1z"/>
				<g transform="translate(83, 35)">
					<text transform="matrix(1 0 0 1 -1.0537 -113.0333)" class="st7 st8 st9">&quot;Get</text>
					<text transform="matrix(1 0 0 1 -12.7568 -93.4708)" class="st7 st8 st9">Started&quot;</text>
				</g>
			</g>
			<g transform="translate(2184, 448)">
				<path class="st18" d="M52.1-97.4l40.6-17.1c1.2-0.6,2.7-0.6,3.9,0l40.6,17.1l40.6,17.1c1.1,0.5,1.6,1.7,1.1,2.8
					c-0.2,0.5-0.6,0.9-1.1,1.1l-40.6,17.1L96.6-42.2c-1.2,0.6-2.7,0.6-3.9,0L52.1-59.3L11.5-76.4c-1.1-0.5-1.6-1.7-1.1-2.8
					c0.2-0.5,0.6-0.9,1.1-1.1L52.1-97.4z"/>
				<g transform="translate(64.5, 44)">
					<text transform="matrix(1 0 0 1 -14.1494 -117.4269)" class="st7 st8 st9">Download App</text>
				</g>
			</g>
			<g transform="translate(2072, 640)">
				<path class="st18" d="M36.5-117.7h122.3c1.2-0.1,2.4,0.6,2.9,1.7l17.1,32c0.7,1,0.7,2.1,0,3.1l-17.1,32
					c-0.5,1.1-1.7,1.8-2.9,1.7H35.5c-1.2,0.1-2.4-0.6-2.9-1.7l-17.1-32c-0.7-1-0.7-2.1,0-3.1l17.1-32c0.5-1.1,1.7-1.8,2.9-1.7
					C35.5-117.7,36.5-117.7,36.5-117.7z"/>
				<g transform="translate(46, 34)">
					<text transform="matrix(1 0 0 1 21.1875 -111.6241)" class="st7 st8 st9">App Store</text>
				</g>
			</g>
			<g transform="translate(2296, 640)">
				<path class="st18" d="M31.6-117.7h122.3c1.2-0.1,2.4,0.6,2.9,1.7l17.1,32c0.7,1,0.7,2.1,0,3.1l-17.1,32
					c-0.5,1.1-1.7,1.8-2.9,1.7H30.6c-1.2,0.1-2.4-0.6-2.9-1.7l-17.1-32c-0.7-1-0.7-2.1,0-3.1l17.1-32c0.5-1.1,1.7-1.8,2.9-1.7
					C30.6-117.7,31.6-117.7,31.6-117.7z"/>
				<g transform="translate(46, 34)">
					<text transform="matrix(1 0 0 1 9.9717 -111.6241)" class="st7 st8 st9">Google Play</text>
				</g>
			</g>
		</g>
		<g>
			<g>
				<path class="st19" d="M1840.5,221v23.5V266c0,6.5-3.3,9.8-9.8,9.8h-90c-6.5,0-9.8,3.3-9.8,9.8l0,0"/>
				<path class="st19" d="M1840.5,217.1c-1.6,0-2.9,1.3-2.9,2.9s1.3,2.9,2.9,2.9s2.9-1.3,2.9-2.9S1842.1,217.1,1840.5,217.1z"/>
				<path class="st19" d="M1731.6,287.2c-0.4,0.4-0.9,0.4-1.3,0l-5.9-6c-0.4-0.4-0.4-0.9,0-1.3c0.4-0.4,0.9-0.4,1.3,0l5.3,5.3
					l5.3-5.3c0.4-0.4,0.9-0.4,1.3,0c0.4,0.4,0.4,0.9,0,1.3L1731.6,287.2z"/>
			</g>
			<g>
				<path class="st19" d="M1840.5,221v23.5V266c0,6.5,3.3,9.8,9.8,9.8h90c6.5,0,9.8,3.3,9.8,9.8l0,0"/>
				<path class="st19" d="M1840.5,217.1c-1.6,0-2.9,1.3-2.9,2.9s1.3,2.9,2.9,2.9s2.9-1.3,2.9-2.9S1842.1,217.1,1840.5,217.1z"/>
				<path class="st19" d="M1950.7,287.2c-0.4,0.4-0.9,0.4-1.3,0l-5.9-6c-0.4-0.4-0.4-0.9,0-1.3c0.4-0.4,0.9-0.4,1.3,0l5.3,5.3
					l5.3-5.3c0.4-0.4,0.9-0.4,1.3,0c0.4,0.4,0.4,0.9,0,1.3L1950.7,287.2z"/>
			</g>
			<g>
				<path class="st19" d="M2278.7,221v23.5v62.6v23"/>
				<path class="st19" d="M2278.7,217.1c-1.6,0-2.9,1.3-2.9,2.9s1.3,2.9,2.9,2.9c1.6,0,2.9-1.3,2.9-2.9S2280.3,217.1,2278.7,217.1z"
					/>
				<path class="st19" d="M2279.3,331.8c-0.4,0.4-0.9,0.4-1.3,0l-5.9-6c-0.4-0.4-0.4-0.9,0-1.3c0.4-0.4,0.9-0.4,1.3,0l5.3,5.3
					l5.3-5.3c0.4-0.4,0.9-0.4,1.3,0c0.4,0.4,0.4,0.9,0,1.3L2279.3,331.8z"/>
			</g>
			<g>
				<path class="st19" d="M2193.6,369.7h-14.7c-6.5,0-9.8,3.3-9.8,9.8v115.4v24.5"/>
				<path class="st19" d="M2197.5,369.7c0-1.6-1.3-2.9-2.9-2.9s-2.9,1.3-2.9,2.9c0,1.6,1.3,2.9,2.9,2.9S2197.5,371.3,2197.5,369.7z"
					/>
				<path class="st19" d="M2169.8,521c-0.4,0.4-0.9,0.4-1.3,0l-5.9-6c-0.4-0.4-0.4-0.9,0-1.3c0.4-0.4,0.9-0.4,1.3,0l5.3,5.3l5.3-5.3
					c0.4-0.4,0.9-0.4,1.3,0c0.4,0.4,0.4,0.9,0,1.3L2169.8,521z"/>
			</g>
			<g>
				<path class="st19" d="M2363.8,369.7h14.7c6.5,0,9.8,3.3,9.8,9.8v115.4v24.5"/>
				<path class="st19" d="M2359.9,369.7c0,1.6,1.3,2.9,2.9,2.9s2.9-1.3,2.9-2.9c0-1.6-1.3-2.9-2.9-2.9S2359.9,368.1,2359.9,369.7z"
					/>
				<path class="st19" d="M2388.9,521c-0.4,0.4-0.9,0.4-1.3,0l-5.9-6c-0.4-0.4-0.4-0.9,0-1.3c0.4-0.4,0.9-0.4,1.3,0l5.3,5.3l5.3-5.3
					c0.4-0.4,0.9-0.4,1.3,0c0.4,0.4,0.4,0.9,0,1.3L2388.9,521z"/>
			</g>
			<g>
				<path class="st19" d="M1730.9,514.4v11.7v52.8c0,6.5,3.3,9.8,9.8,9.8h90c6.5,0,9.8,3.3,9.8,9.8l0,0"/>
				<path class="st19" d="M1730.9,510.5c-1.6,0-2.9,1.3-2.9,2.9c0,1.6,1.3,2.9,2.9,2.9s2.9-1.3,2.9-2.9S1732.5,510.5,1730.9,510.5z"
					/>
				<path class="st19" d="M1841.1,600.3c-0.4,0.4-0.9,0.4-1.3,0l-5.9-6c-0.4-0.4-0.4-0.9,0-1.3c0.4-0.4,0.9-0.4,1.3,0l5.3,5.3
					l5.3-5.3c0.4-0.4,0.9-0.4,1.3,0s0.4,0.9,0,1.3L1841.1,600.3z"/>
			</g>
			<g>
				<path class="st19" d="M1018.8,107.5v2c0,6.5-3.3,9.8-9.8,9.8H152.2c-6.5,0-9.8,3.3-9.8,9.8l0,0"/>
				<path class="st19" d="M1018.8,103.6c-1.6,0-2.9,1.3-2.9,2.9s1.3,2.9,2.9,2.9c1.6,0,2.9-1.3,2.9-2.9S1020.4,103.6,1018.8,103.6z"
					/>
				<path class="st19" d="M143.1,130.7c-0.4,0.4-0.9,0.4-1.3,0l-5.9-6c-0.4-0.4-0.4-0.9,0-1.3s0.9-0.4,1.3,0l5.3,5.3l5.3-5.3
					c0.4-0.4,0.9-0.4,1.3,0s0.4,0.9,0,1.3L143.1,130.7z"/>
			</g>
			<g>
				<path class="st19" d="M1018.8,107.5v2c0,6.5-3.3,9.8-9.8,9.8H371.3c-6.5,0-9.8,3.3-9.8,9.8l0,0"/>
				<path class="st19" d="M1018.8,103.6c-1.6,0-2.9,1.3-2.9,2.9s1.3,2.9,2.9,2.9c1.6,0,2.9-1.3,2.9-2.9S1020.4,103.6,1018.8,103.6z"
					/>
				<path class="st19" d="M362.2,130.7c-0.4,0.4-0.9,0.4-1.3,0l-5.9-6c-0.4-0.4-0.4-0.9,0-1.3s0.9-0.4,1.3,0l5.3,5.3l5.3-5.3
					c0.4-0.4,0.9-0.4,1.3,0s0.4,0.9,0,1.3L362.2,130.7z"/>
			</g>
			<g>
				<path class="st19" d="M1018.8,107.5v2c0,6.5-3.3,9.8-9.8,9.8H590.4c-6.5,0-9.8,3.3-9.8,9.8l0,0"/>
				<path class="st19" d="M1018.8,103.6c-1.6,0-2.9,1.3-2.9,2.9s1.3,2.9,2.9,2.9c1.6,0,2.9-1.3,2.9-2.9S1020.4,103.6,1018.8,103.6z"
					/>
				<path class="st19" d="M581.3,130.7c-0.4,0.4-0.9,0.4-1.3,0l-5.9-6c-0.4-0.4-0.4-0.9,0-1.3s0.9-0.4,1.3,0l5.3,5.3l5.3-5.3
					c0.4-0.4,0.9-0.4,1.3,0c0.4,0.4,0.4,0.9,0,1.3L581.3,130.7z"/>
			</g>
			<g>
				<path class="st19" d="M1018.8,107.5v2c0,6.5-3.3,9.8-9.8,9.8H809.5c-6.5,0-9.8,3.3-9.8,9.8l0,0"/>
				<path class="st19" d="M1018.8,103.6c-1.6,0-2.9,1.3-2.9,2.9s1.3,2.9,2.9,2.9c1.6,0,2.9-1.3,2.9-2.9S1020.4,103.6,1018.8,103.6z"
					/>
				<path class="st19" d="M800.4,130.7c-0.4,0.4-0.9,0.4-1.3,0l-5.9-6c-0.4-0.4-0.4-0.9,0-1.3s0.9-0.4,1.3,0l5.3,5.3l5.3-5.3
					c0.4-0.4,0.9-0.4,1.3,0c0.4,0.4,0.4,0.9,0,1.3L800.4,130.7z"/>
			</g>
			<g>
				<path class="st19" d="M1018.8,107.5v11.7l0,0v9.8"/>
				<path class="st19" d="M1018.8,103.6c-1.6,0-2.9,1.3-2.9,2.9s1.3,2.9,2.9,2.9c1.6,0,2.9-1.3,2.9-2.9S1020.4,103.6,1018.8,103.6z"
					/>
				<path class="st19" d="M1019.5,130.7c-0.4,0.4-0.9,0.4-1.3,0l-5.9-6c-0.4-0.4-0.4-0.9,0-1.3s0.9-0.4,1.3,0l5.3,5.3l5.3-5.3
					c0.4-0.4,0.9-0.4,1.3,0s0.4,0.9,0,1.3L1019.5,130.7z"/>
			</g>
			<g>
				<path class="st19" d="M1018.8,107.5v2c0,6.5,3.3,9.8,9.8,9.8h199.5c6.5,0,9.8,3.3,9.8,9.8l0,0"/>
				<path class="st19" d="M1018.8,103.6c-1.6,0-2.9,1.3-2.9,2.9s1.3,2.9,2.9,2.9c1.6,0,2.9-1.3,2.9-2.9S1020.4,103.6,1018.8,103.6z"
					/>
				<path class="st19" d="M1238.6,130.7c-0.4,0.4-0.9,0.4-1.3,0l-5.9-6c-0.4-0.4-0.4-0.9,0-1.3s0.9-0.4,1.3,0l5.3,5.3l5.3-5.3
					c0.4-0.4,0.9-0.4,1.3,0s0.4,0.9,0,1.3L1238.6,130.7z"/>
			</g>
			<g>
				<path class="st19" d="M1018.8,107.5v2c0,6.5,3.3,9.8,9.8,9.8h418.6c6.5,0,9.8,3.3,9.8,9.8l0,0"/>
				<path class="st19" d="M1018.8,103.6c-1.6,0-2.9,1.3-2.9,2.9s1.3,2.9,2.9,2.9c1.6,0,2.9-1.3,2.9-2.9S1020.4,103.6,1018.8,103.6z"
					/>
				<path class="st19" d="M1457.7,130.7c-0.4,0.4-0.9,0.4-1.3,0l-5.9-6c-0.4-0.4-0.4-0.9,0-1.3s0.9-0.4,1.3,0l5.3,5.3l5.3-5.3
					c0.4-0.4,0.9-0.4,1.3,0s0.4,0.9,0,1.3L1457.7,130.7z"/>
			</g>
			<g>
				<path class="st19" d="M1018.8,107.5v2c0,6.5,3.3,9.8,9.8,9.8h1240.3c6.5,0,9.8,3.3,9.8,9.8v11.7"/>
				<path class="st19" d="M1018.8,103.6c-1.6,0-2.9,1.3-2.9,2.9s1.3,2.9,2.9,2.9c1.6,0,2.9-1.3,2.9-2.9S1020.4,103.6,1018.8,103.6z"
					/>
				<path class="st19" d="M2279.3,142.5c-0.4,0.4-0.9,0.4-1.3,0l-5.9-6c-0.4-0.4-0.4-0.9,0-1.3s0.9-0.4,1.3,0l5.3,5.3l5.3-5.3
					c0.4-0.4,0.9-0.4,1.3,0c0.4,0.4,0.4,0.9,0,1.3L2279.3,142.5z"/>
			</g>
			<g>
				<path class="st19" d="M1018.8,107.5v2c0,6.5,3.3,9.8,9.8,9.8h802.1c6.5,0,9.8,3.3,9.8,9.8v11.7"/>
				<path class="st19" d="M1018.8,103.6c-1.6,0-2.9,1.3-2.9,2.9s1.3,2.9,2.9,2.9c1.6,0,2.9-1.3,2.9-2.9S1020.4,103.6,1018.8,103.6z"
					/>
				<path class="st19" d="M1841.1,142.5c-0.4,0.4-0.9,0.4-1.3,0l-5.9-6c-0.4-0.4-0.4-0.9,0-1.3s0.9-0.4,1.3,0l5.3,5.3l5.3-5.3
					c0.4-0.4,0.9-0.4,1.3,0s0.4,0.9,0,1.3L1841.1,142.5z"/>
			</g>
			<g>
				<path class="st19" d="M1950,514.4v11.7v52.8c0,6.5-3.3,9.8-9.8,9.8h-90c-6.5,0-9.8,3.3-9.8,9.8l0,0"/>
				<path class="st19" d="M1950,510.5c-1.6,0-2.9,1.3-2.9,2.9c0,1.6,1.3,2.9,2.9,2.9s2.9-1.3,2.9-2.9S1951.6,510.5,1950,510.5z"/>
				<path class="st19" d="M1841.1,600.3c-0.4,0.4-0.9,0.4-1.3,0l-5.9-6c-0.4-0.4-0.4-0.9,0-1.3c0.4-0.4,0.9-0.4,1.3,0l5.3,5.3
					l5.3-5.3c0.4-0.4,0.9-0.4,1.3,0s0.4,0.9,0,1.3L1841.1,600.3z"/>
			</g>
		</g>
	</g>
</g>
<g>
	<g transform="translate(840, 1312)">
		<path class="st18" d="M-8.5,89l49-20.7c1.5-0.7,3.2-0.7,4.7,0l49,20.7l49,20.7c1.3,0.6,1.9,2.1,1.4,3.4c-0.3,0.6-0.7,1.1-1.4,1.4
			l-49,20.5l-49,20.7c-1.5,0.7-3.2,0.7-4.7,0l-49-20.7l-49-20.7c-1.3-0.6-1.9-2.1-1.4-3.4c0.3-0.6,0.7-1.1,1.4-1.4L-8.5,89z"/>
		<g transform="translate(64.5, 44)">
			<text transform="matrix(1 0 0 1 -55.2451 62.1158)" class="st7 st8 st20">Sign Up /</text>
			<text transform="matrix(1 0 0 1 -44.2998 85.7233)" class="st7 st8 st20">Log In</text>
		</g>
	</g>
	<g transform="translate(840, 1152)">
		<path class="st18" d="M-52.2,40.7h95h95c2.4,0,4.1,1.8,4.1,4.1v38.4v38.3c0,2.4-1.8,4.1-4.1,4.1h-95h-95c-2.4,0-4.1-1.8-4.1-4.1
			V83.1V44.7C-56.3,42.4-54.5,40.7-52.2,40.7z"/>
		<g transform="translate(36, 34)">
			<text transform="matrix(1 0 0 1 -38.7256 55.0504)" class="st7 st8 st20">Splash Page</text>
		</g>
	</g>
	<g transform="translate(616, 1312)">
		<path class="st18" d="M-92.6,69.5h95h95c2.4,0,4.1,1.8,4.1,4.1V112v38.4c0,2.4-1.8,4.1-4.1,4.1h-95h-95c-2.4,0-4.1-1.8-4.1-4.1
			V112V73.6C-96.7,71.3-95,69.5-92.6,69.5z"/>
		<g transform="translate(36, 34)">
			<text transform="matrix(1 0 0 1 -61.7158 83.9175)" class="st7 st8 st20">Sign Up</text>
		</g>
	</g>
	<g transform="translate(1120, 1312)">
		<path class="st18" d="M-1.7,69.5h95h95c2.4,0,4.1,1.8,4.1,4.1V112v38.4c0,2.4-1.8,4.1-4.1,4.1h-95h-95c-2.4,0-4.1-1.8-4.1-4.1V112
			V73.6C-5.8,71.3-4,69.5-1.7,69.5z"/>
		<g transform="translate(36, 34)">
			<text transform="matrix(1 0 0 1 34.7197 83.9175)" class="st7 st8 st20">Log In</text>
		</g>
	</g>
	<g transform="translate(616, 1440)">
		<path class="st18" d="M-71.4,92.6H2.4H98c1.7,0.3,3,1.8,3,3.5l-10.3,39l-11,40.1c-0.5,1.5-2,2.5-3.5,2.4H2.4h-95.6
			c-1.7-0.3-3-1.8-3-3.5l10.3-39l11-40.1C-74.4,93.5-72.9,92.5-71.4,92.6z"/>
		<g transform="translate(43, 34)">
			<text transform="matrix(1 0 0 1 -123.4521 107.0143)" class="st7 st8 st20">Enter Your Information</text>
		</g>
	</g>
	<g transform="translate(616, 1568)">
		<g>
			<path class="st21" d="M-92.6,115.7h95h95c2.4,0,4.1,1.8,4.1,4.1v38.4v38.4c0,2.4-1.8,4.1-4.1,4.1h-95h-95c-2.4,0-4.1-1.8-4.1-4.1
				v-38.4v-38.4C-96.7,117.5-95,115.7-92.6,115.7z"/>
		</g>
		<g transform="translate(36, 34)">
			<text transform="matrix(1 0 0 1 -112.8613 118.3077)" class="st7 st8 st20">Back-End Information</text>
			<text transform="matrix(1 0 0 1 -102.1914 141.9152)" class="st7 st8 st20">Validation Process</text>
		</g>
	</g>
	<g transform="translate(616, 1696)">
		<path class="st18" d="M-92.6,138.8h95h95c2.4,0,4.1,1.8,4.1,4.1v38.4v38.4c0,2.4-1.8,4.1-4.1,4.1h-95h-95c-2.4,0-4.1-1.8-4.1-4.1
			v-38.4v-38.4C-96.7,140.6-95,138.8-92.6,138.8z"/>
		<g transform="translate(36, 34)">
			<text transform="matrix(1 0 0 1 -114.2129 153.2042)" class="st7 st8 st20">Account Confirmation</text>
		</g>
	</g>
	<g transform="translate(952, 1824)">
		<path class="st18" d="M-32,161.9h95h95c2.4,0,4.1,1.8,4.1,4.1v38.4v38.4c0,2.4-1.8,4.1-4.1,4.1H63h-95c-2.4,0-4.1-1.8-4.1-4.1
			v-38.4V166C-36.1,163.7-34.3,161.9-32,161.9z"/>
		<g transform="translate(36, 34)">
			<text transform="matrix(1 0 0 1 -57.9219 176.2999)" class="st7 st8 st20">Donator Profile / Home</text>
		</g>
	</g>
	<g transform="translate(1288, 1824)">
		<path class="st18" d="M28.7,161.9h95h95c2.4,0,4.1,1.8,4.1,4.1v38.4v38.4c0,2.4-1.8,4.1-4.1,4.1h-95h-95c-2.4,0-4.1-1.8-4.1-4.1
			v-38.4V166C24.5,163.7,26.3,161.9,28.7,161.9z"/>
		<g transform="translate(36, 34)">
			<text transform="matrix(1 0 0 1 -2.0566 176.2999)" class="st7 st8 st20">Recipient Profile / Home</text>
		</g>
	</g>
	<g transform="translate(504, 1984)">
		<path class="st18" d="M-112.8,190.8h95h95c2.4,0,4.1,1.8,4.1,4.1v38.4v38.4c0,2.4-1.8,4.1-4.1,4.1h-95h-95c-2.4,0-4.1-1.8-4.1-4.1
			v-38.4v-38.4C-116.9,192.5-115.2,190.8-112.8,190.8z"/>
		<g transform="translate(36, 34)">
			<text transform="matrix(1 0 0 1 -110.0117 205.169)" class="st7 st8 st20">Your Donations</text>
		</g>
	</g>
	<g transform="translate(728, 1984)">
		<path class="st18" d="M-72.4,190.8h95h95c2.4,0,4.1,1.8,4.1,4.1v38.4v38.4c0,2.4-1.8,4.1-4.1,4.1h-95h-95c-2.4,0-4.1-1.8-4.1-4.1
			v-38.4v-38.4C-76.5,192.5-74.8,190.8-72.4,190.8z"/>
		<g transform="translate(36, 34)">
			<text transform="matrix(1 0 0 1 -52.3174 205.169)" class="st7 st8 st20">View Stats</text>
		</g>
	</g>
	<g transform="translate(1120, 1696)">
		<path class="st22" d="M42,158.3l49-20.7c1.5-0.7,3.2-0.7,4.7,0l49,20.7l49,20.7c1.3,0.6,1.9,2.1,1.4,3.4c-0.3,0.6-0.7,1.1-1.4,1.4
			l-49,20.7l-49,20.7c-1.5,0.7-3.2,0.7-4.7,0l-49-20.9l-49-20.6c-1.3-0.6-1.9-2.1-1.4-3.4c0.3-0.6,0.7-1.1,1.4-1.4L42,158.3z"/>
		<g transform="translate(64.5, 44)">
			<text transform="matrix(1 0 0 1 -10 131.3995)" class="st7 st8 st20">Donator or</text>
			<text transform="matrix(1 0 0 1 -9.1074 155.0089)" class="st7 st8 st20">Recipient?</text>
		</g>
	</g>
	<g transform="translate(952, 1984)">
		<path class="st18" d="M-32,190.8h95h95c2.4,0,4.1,1.8,4.1,4.1v38.4v38.4c0,2.4-1.8,4.1-4.1,4.1H63h-95c-2.4,0-4.1-1.8-4.1-4.1
			v-38.4v-38.4C-36.1,192.5-34.3,190.8-32,190.8z"/>
		<g transform="translate(36, 34)">
			<text transform="matrix(1 0 0 1 -22.8623 205.169)" class="st7 st8 st20">Add Donation</text>
		</g>
	</g>
	<g transform="translate(280, 1984)">
		<path class="st18" d="M-153.2,190.8h95h95c2.4,0,4.1,1.8,4.1,4.1v38.4v38.4c0,2.4-1.8,4.1-4.1,4.1h-95h-95c-2.4,0-4.1-1.8-4.1-4.1
			v-38.4v-38.4C-157.4,192.5-155.6,190.8-153.2,190.8z"/>
		<g transform="translate(36, 34)">
			<text transform="matrix(1 0 0 1 -124.333 205.169)" class="st7 st8 st20">Settings</text>
		</g>
	</g>
	<g transform="translate(1736, 1984)">
		<path class="st18" d="M109.5,190.8h95h95c2.4,0,4.1,1.8,4.1,4.1v38.4v38.4c0,2.4-1.8,4.1-4.1,4.1h-95h-95c-2.4,0-4.1-1.8-4.1-4.1
			v-38.4v-38.4C105.4,192.5,107.1,190.8,109.5,190.8z"/>
		<g transform="translate(36, 34)">
			<text transform="matrix(1 0 0 1 129.5615 205.169)" class="st7 st8 st20">View Stats</text>
		</g>
	</g>
	<g transform="translate(1512, 1984)">
		<path class="st18" d="M69.1,190.8h95h95c2.4,0,4.1,1.8,4.1,4.1v38.4v38.4c0,2.4-1.8,4.1-4.1,4.1h-95h-95c-2.4,0-4.1-1.8-4.1-4.1
			v-38.4v-38.4C64.9,192.5,66.7,190.8,69.1,190.8z"/>
		<g transform="translate(36, 34)">
			<text transform="matrix(1 0 0 1 97.957 205.169)" class="st7 st8 st20">Settings</text>
		</g>
	</g>
	<g transform="translate(1288, 1984)">
		<path class="st18" d="M28.7,190.8h95h95c2.4,0,4.1,1.8,4.1,4.1v38.4v38.4c0,2.4-1.8,4.1-4.1,4.1h-95h-95c-2.4,0-4.1-1.8-4.1-4.1
			v-38.4v-38.4C24.5,192.5,26.3,190.8,28.7,190.8z"/>
		<g transform="translate(36, 34)">
			<text transform="matrix(1 0 0 1 18.2158 205.169)" class="st7 st8 st20">See Available Food</text>
		</g>
	</g>
	<g transform="translate(1960, 1984)">
		<path class="st18" d="M149.9,190.8h95h95c2.4,0,4.1,1.8,4.1,4.1v38.4v38.4c0,2.4-1.8,4.1-4.1,4.1h-95h-95c-2.4,0-4.1-1.8-4.1-4.1
			v-38.4v-38.4C145.8,192.5,147.5,190.8,149.9,190.8z"/>
		<g transform="translate(36, 34)">
			<text transform="matrix(1 0 0 1 159.0146 205.169)" class="st7 st8 st20">Add Donation</text>
		</g>
	</g>
	<g transform="translate(280, 2176)">
		<path class="st18" d="M-132,225.4h73.8h95.6c1.7,0.3,3,1.8,3,3.5l-10.3,39l-11,40.1c-0.5,1.5-2,2.5-3.5,2.4h-73.8h-95.6
			c-1.7-0.3-3-1.8-3-3.5l10.3-39l10.9-40.1C-135,226.3-133.6,225.3-132,225.4z"/>
		<g transform="translate(43, 34)">
			<text transform="matrix(1 0 0 1 -142.5859 239.8116)" class="st7 st8 st20">Take Photo</text>
		</g>
	</g>
	<g transform="translate(504, 2176)">
		<path class="st18" d="M-91.6,225.4h73.8h95.6c1.7,0.3,3,1.8,3,3.5l-10.3,39l-11,40.1c-0.5,1.5-2,2.5-3.5,2.4h-73.8h-95.6
			c-1.7-0.3-3-1.8-3-3.5l10.3-39l10.9-40.1C-94.6,226.3-93.1,225.3-91.6,225.4z"/>
		<g transform="translate(43, 34)">
			<text transform="matrix(1 0 0 1 -107.2178 239.8116)" class="st7 st8 st20">Enter Details</text>
		</g>
	</g>
	<g transform="translate(728, 2176)">
		<path class="st18" d="M-9.9,235.4c8.6-8.6,20.3-13.5,32.6-13.5s23.9,4.9,32.6,13.5C64,244,68.8,255.7,68.8,268
			c0,12.3-4.9,23.9-13.5,32.6c-8.6,8.6-20.3,13.5-32.6,13.5s-23.9-4.9-32.6-13.5c-8.6-8.6-13.5-20.3-13.5-32.6
			C-23.4,255.7-18.6,244-9.9,235.4z"/>
		<g transform="translate(83, 35)">
			<text transform="matrix(1 0 0 1 -86.4043 239.9932)" class="st7 st8 st20">Submit</text>
		</g>
	</g>
	<g transform="translate(952, 2176)">
		<path class="st18" d="M-32,225.4h95h95c2.4,0,4.1,1.8,4.1,4.1v38.4v38.4c0,2.4-1.8,4.1-4.1,4.1H63h-95c-2.4,0-4.1-1.8-4.1-4.1
			v-38.4v-38.4C-36.1,227.2-34.3,225.4-32,225.4z"/>
		<g transform="translate(36, 34)">
			<text transform="matrix(1 0 0 1 -47.6367 239.8116)" class="st7 st8 st20">Listing Confirmation</text>
		</g>
	</g>
	<g transform="translate(952, 2368)">
		<path class="st18" d="M30.5,270c8.6-8.6,20.3-13.5,32.6-13.5S87,261.4,95.6,270c8.6,8.6,13.5,20.3,13.5,32.6
			c0,12.2-4.9,23.9-13.5,32.6S75.3,348.7,63,348.7s-23.9-4.9-32.6-13.5c-8.7-8.6-13.4-20.4-13.4-32.6C17,290.3,21.9,278.6,30.5,270z
			"/>
		<g transform="translate(83, 35)">
			<text transform="matrix(1 0 0 1 -37.7979 262.8331)" class="st7 st8 st20">View</text>
			<text transform="matrix(1 0 0 1 -39 286.4405)" class="st7 st8 st20">Stats</text>
		</g>
	</g>
	<g transform="translate(728, 2368)">
		<path class="st18" d="M-9.9,270c8.6-8.6,20.3-13.5,32.6-13.5s23.9,4.9,32.6,13.5c8.7,8.6,13.5,20.3,13.5,32.6
			c0,12.2-4.9,23.9-13.5,32.6S35,348.7,22.7,348.7s-23.9-4.9-32.6-13.5c-8.7-8.6-13.5-20.3-13.5-32.6
			C-23.4,290.3-18.6,278.6-9.9,270z"/>
		<g transform="translate(83, 35)">
			<text transform="matrix(1 0 0 1 -89.2305 262.8331)" class="st7 st8 st20">Contact</text>
			<text transform="matrix(1 0 0 1 -89.5 286.4405)" class="st7 st8 st20">Support</text>
		</g>
	</g>
	<g transform="translate(504, 2368)">
		<path class="st18" d="M-50.3,270c8.6-8.6,20.3-13.5,32.6-13.5s23.9,4.9,32.6,13.5c8.7,8.6,13.5,20.3,13.5,32.6
			c0,12.2-4.9,23.9-13.5,32.6s-20.3,13.5-32.6,13.5s-23.9-4.9-32.6-13.5c-8.7-8.6-13.5-20.3-13.5-32.6
			C-63.8,290.3-59,278.6-50.3,270z"/>
		<g transform="translate(83, 35)">
			<text transform="matrix(1 0 0 1 -137.0186 274.6378)" class="st7 st8 st20">View Map</text>
		</g>
	</g>
	<g transform="translate(1288, 2176)">
		<path class="st18" d="M28.7,225.4h95h95c2.4,0,4.1,1.8,4.1,4.1v38.4v38.4c0,2.4-1.8,4.1-4.1,4.1h-95h-95c-2.4,0-4.1-1.8-4.1-4.1
			v-38.4v-38.4C24.5,227.2,26.3,225.4,28.7,225.4z"/>
		<g transform="translate(36, 34)">
			<text transform="matrix(1 0 0 1 33.918 239.8116)" class="st7 st8 st20">Available Food</text>
		</g>
	</g>
	<g transform="translate(1512, 2176)">
		<path class="st18" d="M69.1,225.4h95h95c2.4,0,4.1,1.8,4.1,4.1v38.4v38.4c0,2.4-1.8,4.1-4.1,4.1h-95h-95c-2.4,0-4.1-1.8-4.1-4.1
			v-38.4v-38.4C64.9,227.2,66.7,225.4,69.1,225.4z"/>
		<g transform="translate(36, 34)">
			<text transform="matrix(1 0 0 1 84.2217 239.8116)" class="st7 st8 st20">Item Details</text>
		</g>
	</g>
	<g transform="translate(1736, 2112)">
		<path class="st18" d="M172,223.8c8.6-8.6,20.3-13.5,32.6-13.5c12.2,0,23.9,4.9,32.6,13.5c8.6,8.6,13.5,20.3,13.5,32.6
			c0,12.2-4.9,23.9-13.5,32.6c-8.6,8.6-20.3,13.5-32.6,13.5c-12.2,0-23.9-4.9-32.6-13.5c-8.7-8.6-13.5-20.3-13.5-32.6
			C158.5,244.2,163.3,232.4,172,223.8z"/>
		<g transform="translate(83, 35)">
			<text transform="matrix(1 0 0 1 103.3604 228.4483)" class="st7 st8 st20">Back</text>
		</g>
	</g>
	<g transform="translate(1736, 2240)">
		<path class="st18" d="M172,246.9c8.6-8.6,20.3-13.5,32.6-13.5c12.2,0,23.9,4.9,32.6,13.5c8.6,8.6,13.5,20.3,13.5,32.6
			c0,12.2-4.9,23.9-13.5,32.6c-8.6,8.6-20.3,13.5-32.6,13.5c-12.2,0-23.9-4.9-32.6-13.5c-8.7-8.6-13.5-20.3-13.5-32.6
			C158.5,267.2,163.3,255.5,172,246.9z"/>
		<g transform="translate(83, 35)">
			<text transform="matrix(1 0 0 1 100.3896 251.5421)" class="st7 st8 st20">Claim</text>
		</g>
	</g>
	<g transform="translate(1960, 2176)">
		<path class="st18" d="M149.9,225.4h95h95c2.4,0,4.1,1.8,4.1,4.1v38.4v38.4c0,2.4-1.8,4.1-4.1,4.1h-95h-95c-2.4,0-4.1-1.8-4.1-4.1
			v-38.4v-38.4C145.8,227.2,147.5,225.4,149.9,225.4z"/>
		<g transform="translate(36, 34)">
			<text transform="matrix(1 0 0 1 150.541 239.8116)" class="st7 st8 st20">Success Screen</text>
		</g>
	</g>
	<g transform="translate(2184, 2112)">
		<path class="st18" d="M252.8,223.8c8.6-8.6,20.3-13.5,32.6-13.5c12.2,0,23.9,4.9,32.6,13.5c8.6,8.6,13.5,20.3,13.5,32.6
			c0,12.2-4.9,23.9-13.5,32.6c-8.6,8.6-20.3,13.5-32.6,13.5c-12.2,0-23.9-4.9-32.6-13.5c-8.6-8.6-13.5-20.3-13.5-32.6
			C239.3,244.2,244.2,232.4,252.8,223.8z"/>
		<g transform="translate(83, 35)">
			<text transform="matrix(1 0 0 1 184.1943 228.4483)" class="st7 st8 st20">Back</text>
		</g>
	</g>
	<g transform="translate(2184, 2240)">
		<path class="st18" d="M252.8,246.9c8.6-8.6,20.3-13.5,32.6-13.5c12.2,0,23.9,4.9,32.6,13.5c8.6,8.6,13.5,20.3,13.5,32.6
			c0,12.2-4.9,23.9-13.5,32.6c-8.6,8.6-20.3,13.5-32.6,13.5c-12.2,0-23.9-4.9-32.6-13.5c-8.6-8.6-13.5-20.3-13.5-32.6
			C239.3,267.2,244.2,255.5,252.8,246.9z"/>
		<g transform="translate(83, 35)">
			<text transform="matrix(1 0 0 1 169.8076 251.5421)" class="st7 st8 st20">Navigate</text>
		</g>
	</g>
	<g transform="translate(280, 2368)">
		<path class="st18" d="M-90.8,270c8.6-8.6,20.3-13.5,32.6-13.5s23.9,4.9,32.6,13.5c8.7,8.6,13.5,20.3,13.5,32.6
			c0,12.2-4.9,23.9-13.5,32.6s-20.3,13.5-32.6,13.5s-23.9-4.9-32.6-13.5c-8.7-8.6-13.5-20.3-13.5-32.6
			C-104.2,290.3-99.4,278.6-90.8,270z"/>
		<g transform="translate(83, 35)">
			<text transform="matrix(1 0 0 1 -159.3506 274.6378)" class="st7 st8 st20">Back</text>
		</g>
	</g>
	<g>
		<path class="st19" d="M780.1,1424h-29.5l0,0h-29.5"/>
		<path class="st19" d="M784.9,1424c0-2-1.6-3.5-3.5-3.5c-2,0-3.5,1.6-3.5,3.5s1.6,3.5,3.5,3.5C783.3,1427.6,784.9,1426,784.9,1424z
			"/>
		<path class="st19" d="M719.1,1424.8c-0.4-0.4-0.4-1.1,0-1.6l7.2-7.2c0.4-0.4,1.1-0.4,1.6,0s0.4,1.1,0,1.6l-6.4,6.4l6.4,6.4
			c0.4,0.4,0.4,1.1,0,1.6c-0.4,0.4-1.1,0.4-1.6,0L719.1,1424.8z"/>
	</g>
	<g>
		<path class="st19" d="M985.5,1424h29.5h66.1h29.5"/>
		<path class="st19" d="M980.8,1424c0,2,1.6,3.5,3.5,3.5s3.5-1.6,3.5-3.5s-1.6-3.5-3.5-3.5S980.8,1422.1,980.8,1424z"/>
		<path class="st19" d="M1112.7,1423.2c0.4,0.4,0.4,1.1,0,1.6l-7.2,7.2c-0.4,0.4-1.1,0.4-1.6,0s-0.4-1.1,0-1.6l6.4-6.4l-6.4-6.4
			c-0.4-0.4-0.4-1.1,0-1.6c0.4-0.4,1.1-0.4,1.6,0L1112.7,1423.2z"/>
	</g>
	<g>
		<path class="st19" d="M882.8,1278.8v31.9v37.8v27.7"/>
		<path class="st19" d="M882.8,1274.1c-2,0-3.5,1.6-3.5,3.5c0,2,1.6,3.5,3.5,3.5s3.5-1.6,3.5-3.5
			C886.4,1275.7,884.8,1274.1,882.8,1274.1z"/>
		<path class="st19" d="M883.6,1378.2c-0.4,0.4-1.1,0.4-1.6,0l-7.2-7.2c-0.4-0.4-0.4-1.1,0-1.6c0.4-0.4,1.1-0.4,1.6,0l6.4,6.4
			l6.4-6.4c0.4-0.4,1.1-0.4,1.6,0c0.4,0.4,0.4,1.1,0,1.6L883.6,1378.2z"/>
	</g>
	<g>
		<path class="st19" d="M618.4,1467.7v31.9l0,0v29.5"/>
		<path class="st19" d="M618.4,1463c-2,0-3.5,1.6-3.5,3.5s1.6,3.5,3.5,3.5c2,0,3.5-1.6,3.5-3.5S620.4,1463,618.4,1463z"/>
		<path class="st19" d="M619.2,1531.1c-0.4,0.4-1.1,0.4-1.6,0l-7.2-7.2c-0.4-0.4-0.4-1.1,0-1.6c0.4-0.4,1.1-0.4,1.6,0l6.4,6.4
			l6.4-6.4c0.4-0.4,1.1-0.4,1.6,0s0.4,1.1,0,1.6L619.2,1531.1z"/>
	</g>
	<g>
		<path class="st19" d="M1213.4,1467.7v31.9v302.2v27.7"/>
		<path class="st19" d="M1213.4,1463c-2,0-3.5,1.6-3.5,3.5s1.6,3.5,3.5,3.5c2,0,3.5-1.6,3.5-3.5S1215.3,1463,1213.4,1463z"/>
		<path class="st19" d="M1214.1,1831.5c-0.4,0.4-1.1,0.4-1.6,0l-7.2-7.2c-0.4-0.4-0.4-1.1,0-1.6c0.4-0.4,1.1-0.4,1.6,0l6.4,6.4
			l6.4-6.4c0.4-0.4,1.1-0.4,1.6,0c0.4,0.4,0.4,1.1,0,1.6L1214.1,1831.5z"/>
	</g>
	<g>
		<path class="st19" d="M618.4,1618.8v31.9l0,0v29.5"/>
		<path class="st19" d="M618.4,1614.1c-2,0-3.5,1.6-3.5,3.5c0,2,1.6,3.5,3.5,3.5c2,0,3.5-1.6,3.5-3.5
			C622,1615.7,620.4,1614.1,618.4,1614.1z"/>
		<path class="st19" d="M619.2,1682.2c-0.4,0.4-1.1,0.4-1.6,0l-7.2-7.2c-0.4-0.4-0.4-1.1,0-1.6c0.4-0.4,1.1-0.4,1.6,0l6.4,6.4
			l6.4-6.4c0.4-0.4,1.1-0.4,1.6,0s0.4,1.1,0,1.6L619.2,1682.2z"/>
	</g>
	<g>
		<path class="st19" d="M618.4,1769.9v31.9l0,0v29.5"/>
		<path class="st19" d="M618.4,1765.2c-2,0-3.5,1.6-3.5,3.5c0,2,1.6,3.5,3.5,3.5c2,0,3.5-1.6,3.5-3.5
			C622,1766.7,620.4,1765.2,618.4,1765.2z"/>
		<path class="st19" d="M619.2,1833.3c-0.4,0.4-1.1,0.4-1.6,0l-7.2-7.2c-0.4-0.4-0.4-1.1,0-1.6c0.4-0.4,1.1-0.4,1.6,0l6.4,6.4
			l6.4-6.4c0.4-0.4,1.1-0.4,1.6,0s0.4,1.1,0,1.6L619.2,1833.3z"/>
	</g>
	<g>
		<path class="st19" d="M718.8,1877.3h31.9H871c7.9,0,11.8-3.9,11.8-11.8v-365.9v-27.7"/>
		<path class="st19" d="M714,1877.3c0,2,1.6,3.5,3.5,3.5c2,0,3.5-1.6,3.5-3.5s-1.6-3.5-3.5-3.5S714,1875.3,714,1877.3z"/>
		<path class="st19" d="M882.1,1469.8c0.4-0.4,1.1-0.4,1.6,0l7.2,7.2c0.4,0.4,0.4,1.1,0,1.6c-0.4,0.4-1.1,0.4-1.6,0l-6.4-6.4
			l-6.4,6.4c-0.4,0.4-1.1,0.4-1.6,0c-0.4-0.4-0.4-1.1,0-1.6L882.1,1469.8z"/>
	</g>
	<g>
		<path class="st19" d="M1015.1,2072.1v31.9v37.8v29.5"/>
		<path class="st19" d="M1015.1,2067.4c-2,0-3.5,1.6-3.5,3.5c0,1.9,1.6,3.5,3.5,3.5c2,0,3.5-1.6,3.5-3.5
			C1018.6,2069,1017,2067.4,1015.1,2067.4z"/>
		<path class="st19" d="M1015.8,2173.3c-0.4,0.4-1.1,0.4-1.6,0l-7.2-7.2c-0.4-0.4-0.4-1.1,0-1.6c0.4-0.4,1.1-0.4,1.6,0l6.4,6.4
			l6.4-6.4c0.4-0.4,1.1-0.4,1.6,0c0.4,0.4,0.4,1.1,0,1.6L1015.8,2173.3z"/>
	</g>
	<g>
		<path class="st19" d="M1015.1,2072.1v31.9v26c0,7.9-3.9,11.8-11.8,11.8H762.4c-7.9,0-11.8,3.9-11.8,11.8v17.7"/>
		<path class="st19" d="M1015.1,2067.4c-2,0-3.5,1.6-3.5,3.5c0,1.9,1.6,3.5,3.5,3.5c2,0,3.5-1.6,3.5-3.5
			C1018.6,2069,1017,2067.4,1015.1,2067.4z"/>
		<path class="st19" d="M751.4,2173.3c-0.4,0.4-1.1,0.4-1.6,0l-7.2-7.2c-0.4-0.4-0.4-1.1,0-1.6c0.4-0.4,1.1-0.4,1.6,0l6.4,6.4
			l6.4-6.4c0.4-0.4,1.1-0.4,1.6,0c0.4,0.4,0.4,1.1,0,1.6L751.4,2173.3z"/>
	</g>
	<g>
		<path class="st19" d="M1015.1,2072.1v31.9v26c0,7.9-3.9,11.8-11.8,11.8H498c-7.9,0-11.8,3.9-11.8,11.8v17.7"/>
		<path class="st19" d="M1015.1,2067.4c-2,0-3.5,1.6-3.5,3.5c0,1.9,1.6,3.5,3.5,3.5c2,0,3.5-1.6,3.5-3.5
			C1018.6,2069,1017,2067.4,1015.1,2067.4z"/>
		<path class="st19" d="M487,2173.3c-0.4,0.4-1.1,0.4-1.6,0l-7.2-7.2c-0.4-0.4-0.4-1.1,0-1.6s1.1-0.4,1.6,0l6.4,6.4l6.4-6.4
			c0.4-0.4,1.1-0.4,1.6,0c0.4,0.4,0.4,1.1,0,1.6L487,2173.3z"/>
	</g>
	<g>
		<path class="st19" d="M1015.1,2072.1v31.9v26c0,7.9-3.9,11.8-11.8,11.8H233.6c-7.9,0-11.8,3.9-11.8,11.8v17.7"/>
		<path class="st19" d="M1015.1,2067.4c-2,0-3.5,1.6-3.5,3.5c0,1.9,1.6,3.5,3.5,3.5c2,0,3.5-1.6,3.5-3.5
			C1018.6,2069,1017,2067.4,1015.1,2067.4z"/>
		<path class="st19" d="M222.6,2173.3c-0.4,0.4-1.1,0.4-1.6,0l-7.2-7.2c-0.4-0.4-0.4-1.1,0-1.6s1.1-0.4,1.6,0l6.4,6.4l6.4-6.4
			c0.4-0.4,1.1-0.4,1.6,0c0.5,0.4,0.4,1.1,0,1.6L222.6,2173.3z"/>
	</g>
	<g>
		<path class="st19" d="M1411.7,2072.1v31.9v26c0,7.9,3.9,11.8,11.8,11.8h240.8c7.9,0,11.8,3.9,11.8,11.8v17.7"/>
		<path class="st19" d="M1411.7,2067.4c-2,0-3.5,1.6-3.5,3.5c0,1.9,1.6,3.5,3.5,3.5c2,0,3.5-1.6,3.5-3.5
			C1415.2,2069,1413.6,2067.4,1411.7,2067.4z"/>
		<path class="st19" d="M1676.9,2173.3c-0.4,0.4-1.1,0.4-1.6,0l-7.2-7.2c-0.4-0.4-0.4-1.1,0-1.6s1.1-0.4,1.6,0l6.4,6.4l6.4-6.4
			c0.4-0.4,1.1-0.4,1.6,0c0.4,0.4,0.4,1.1,0,1.6L1676.9,2173.3z"/>
	</g>
	<g>
		<path class="st19" d="M1411.7,2072.1v31.9v37.8v29.5"/>
		<path class="st19" d="M1411.7,2067.4c-2,0-3.5,1.6-3.5,3.5c0,1.9,1.6,3.5,3.5,3.5c2,0,3.5-1.6,3.5-3.5
			C1415.2,2069,1413.6,2067.4,1411.7,2067.4z"/>
		<path class="st19" d="M1412.5,2173.3c-0.4,0.4-1.1,0.4-1.6,0l-7.2-7.2c-0.4-0.4-0.4-1.1,0-1.6c0.4-0.4,1.1-0.4,1.6,0l6.4,6.4
			l6.4-6.4c0.4-0.4,1.1-0.4,1.6,0c0.4,0.4,0.4,1.1,0,1.6L1412.5,2173.3z"/>
	</g>
	<g>
		<path class="st19" d="M1411.7,2072.1v31.9v26c0,7.9,3.9,11.8,11.8,11.8h505.2c7.9,0,11.8,3.9,11.8,11.8v17.7"/>
		<path class="st19" d="M1411.7,2067.4c-2,0-3.5,1.6-3.5,3.5c0,1.9,1.6,3.5,3.5,3.5c2,0,3.5-1.6,3.5-3.5
			C1415.2,2069,1413.6,2067.4,1411.7,2067.4z"/>
		<path class="st19" d="M1941.3,2173.3c-0.4,0.4-1.1,0.4-1.6,0l-7.2-7.2c-0.4-0.4-0.4-1.1,0-1.6c0.4-0.4,1.1-0.4,1.6,0l6.4,6.4
			l6.4-6.4c0.4-0.4,1.1-0.4,1.6,0c0.4,0.4,0.4,1.1,0,1.6L1941.3,2173.3z"/>
	</g>
	<g>
		<path class="st19" d="M1411.7,2072.1v31.9v26c0,7.9,3.9,11.8,11.8,11.8h769.6c7.9,0,11.8,3.9,11.8,11.8v17.7"/>
		<path class="st19" d="M1411.7,2067.4c-2,0-3.5,1.6-3.5,3.5c0,1.9,1.6,3.5,3.5,3.5c2,0,3.5-1.6,3.5-3.5
			C1415.2,2069,1413.6,2067.4,1411.7,2067.4z"/>
		<path class="st19" d="M2205.7,2173.3c-0.4,0.4-1.1,0.4-1.6,0l-7.2-7.2c-0.4-0.4-0.4-1.1,0-1.6c0.4-0.4,1.1-0.4,1.6,0l6.4,6.4
			l6.4-6.4c0.4-0.4,1.1-0.4,1.6,0c0.4,0.4,0.4,1.1,0,1.6L2205.7,2173.3z"/>
	</g>
	<g>
		<path class="st19" d="M1110.7,1877.3h-29.5h-54.3c-7.9,0-11.8,3.9-11.8,11.8v63.7v29.5"/>
		<path class="st19" d="M1115.4,1877.3c0-2-1.6-3.5-3.5-3.5s-3.5,1.6-3.5,3.5s1.6,3.5,3.5,3.5S1115.4,1879.3,1115.4,1877.3z"/>
		<path class="st19" d="M1015.8,1984.4c-0.4,0.4-1.1,0.4-1.6,0l-7.2-7.2c-0.4-0.4-0.4-1.1,0-1.6c0.4-0.4,1.1-0.4,1.6,0l6.4,6.4
			l6.4-6.4c0.4-0.4,1.1-0.4,1.6,0c0.4,0.4,0.4,1.1,0,1.6L1015.8,1984.4z"/>
	</g>
	<g>
		<path class="st19" d="M1316.1,1877.3h29.5h54.3c7.9,0,11.8,3.9,11.8,11.8v63.7v29.5"/>
		<path class="st19" d="M1311.3,1877.3c0,2,1.6,3.5,3.5,3.5s3.5-1.6,3.5-3.5s-1.6-3.5-3.5-3.5S1311.3,1875.3,1311.3,1877.3z"/>
		<path class="st19" d="M1412.5,1984.4c-0.4,0.4-1.1,0.4-1.6,0l-7.2-7.2c-0.4-0.4-0.4-1.1,0-1.6c0.4-0.4,1.1-0.4,1.6,0l6.4,6.4
			l6.4-6.4c0.4-0.4,1.1-0.4,1.6,0c0.4,0.4,0.4,1.1,0,1.6L1412.5,1984.4z"/>
	</g>
	<g>
		<path class="st19" d="M1015.1,2260.9v31.9v63.7c0,7.9-3.9,11.8-11.8,11.8H233.6c-7.9,0-11.8,3.9-11.8,11.8v17.7"/>
		<path class="st19" d="M1015.1,2256.2c-2,0-3.5,1.6-3.5,3.5s1.6,3.5,3.5,3.5c2,0,3.5-1.6,3.5-3.5S1017,2256.2,1015.1,2256.2z"/>
		<path class="st19" d="M222.6,2399.9c-0.4,0.4-1.1,0.4-1.6,0l-7.2-7.2c-0.4-0.4-0.4-1.1,0-1.6s1.1-0.4,1.6,0l6.4,6.4l6.4-6.4
			c0.4-0.4,1.1-0.4,1.6,0s0.4,1.1,0,1.6L222.6,2399.9z"/>
	</g>
	<g>
		<path class="st19" d="M1411.7,2260.9v31.9v75.5v29.5"/>
		<path class="st19" d="M1411.7,2256.2c-2,0-3.5,1.6-3.5,3.5s1.6,3.5,3.5,3.5c2,0,3.5-1.6,3.5-3.5S1413.6,2256.2,1411.7,2256.2z"/>
		<path class="st19" d="M1412.5,2399.9c-0.4,0.4-1.1,0.4-1.6,0l-7.2-7.2c-0.4-0.4-0.4-1.1,0-1.6c0.4-0.4,1.1-0.4,1.6,0l6.4,6.4
			l6.4-6.4c0.4-0.4,1.1-0.4,1.6,0c0.4,0.4,0.4,1.1,0,1.6L1412.5,2399.9z"/>
	</g>
	<g>
		<path class="st19" d="M311.2,2443.9H354l0,0h40.4"/>
		<path class="st19" d="M306.5,2443.9c0,2,1.6,3.5,3.5,3.5c2,0,3.5-1.6,3.5-3.5c0-2-1.6-3.5-3.5-3.5S306.5,2442,306.5,2443.9z"/>
		<path class="st19" d="M396.5,2443.1c0.4,0.4,0.4,1.1,0,1.6l-7.2,7.2c-0.4,0.4-1.1,0.4-1.6,0c-0.4-0.4-0.4-1.1,0-1.6l6.4-6.4
			l-6.4-6.4c-0.4-0.4-0.4-1.1,0-1.6c0.4-0.4,1.1-0.4,1.6,0L396.5,2443.1z"/>
	</g>
	<g>
		<path class="st19" d="M575.6,2443.9h42.8l0,0H701"/>
		<path class="st19" d="M570.9,2443.9c0,2,1.6,3.5,3.5,3.5s3.5-1.6,3.5-3.5c0-2-1.6-3.5-3.5-3.5S570.9,2442,570.9,2443.9z"/>
		<path class="st19" d="M703.1,2443.1c0.4,0.4,0.4,1.1,0,1.6l-7.2,7.2c-0.4,0.4-1.1,0.4-1.6,0s-0.4-1.1,0-1.6l6.4-6.4l-6.4-6.4
			c-0.4-0.4-0.4-1.1,0-1.6s1.1-0.4,1.6,0L703.1,2443.1z"/>
	</g>
	<g>
		<path class="st19" d="M797.9,2443.9h85l0,0h29.5"/>
		<path class="st19" d="M793.1,2443.9c0,2,1.6,3.5,3.5,3.5s3.5-1.6,3.5-3.5c0-2-1.6-3.5-3.5-3.5S793.1,2442,793.1,2443.9z"/>
		<path class="st19" d="M914.4,2443.1c0.4,0.4,0.4,1.1,0,1.6l-7.2,7.2c-0.4,0.4-1.1,0.4-1.6,0s-0.4-1.1,0-1.6l6.4-6.4l-6.4-6.4
			c-0.4-0.4-0.4-1.1,0-1.6s1.1-0.4,1.6,0L914.4,2443.1z"/>
	</g>
	<g>
		<path class="st19" d="M1015.1,2487.6v31.9v63.7c0,7.9-3.9,11.8-11.8,11.8H498c-7.9,0-11.8,3.9-11.8,11.8v14.2"/>
		<path class="st19" d="M1015.1,2482.9c-2,0-3.5,1.6-3.5,3.5s1.6,3.5,3.5,3.5c2,0,3.5-1.6,3.5-3.5S1017,2482.9,1015.1,2482.9z"/>
		<path class="st19" d="M487,2623c-0.4,0.4-1.1,0.4-1.6,0l-7.2-7.2c-0.4-0.4-0.4-1.1,0-1.6c0.4-0.4,1.1-0.4,1.6,0l6.4,6.4l6.4-6.4
			c0.4-0.4,1.1-0.4,1.6,0c0.4,0.4,0.4,1.1,0,1.6L487,2623z"/>
	</g>
	<g>
		<path class="st19" d="M1015.1,2487.6v31.9v63.7c0,7.9-3.9,11.8-11.8,11.8H762.4c-7.9,0-11.8,3.9-11.8,11.8v14.2"/>
		<path class="st19" d="M1015.1,2482.9c-2,0-3.5,1.6-3.5,3.5s1.6,3.5,3.5,3.5c2,0,3.5-1.6,3.5-3.5S1017,2482.9,1015.1,2482.9z"/>
		<path class="st19" d="M751.4,2623c-0.4,0.4-1.1,0.4-1.6,0l-7.2-7.2c-0.4-0.4-0.4-1.1,0-1.6c0.4-0.4,1.1-0.4,1.6,0l6.4,6.4l6.4-6.4
			c0.4-0.4,1.1-0.4,1.6,0c0.4,0.4,0.4,1.1,0,1.6L751.4,2623z"/>
	</g>
	<g>
		<path class="st19" d="M1015.1,2487.6v31.9v75.5v26"/>
		<path class="st19" d="M1015.1,2482.9c-2,0-3.5,1.6-3.5,3.5s1.6,3.5,3.5,3.5c2,0,3.5-1.6,3.5-3.5S1017,2482.9,1015.1,2482.9z"/>
		<path class="st19" d="M1015.8,2623c-0.4,0.4-1.1,0.4-1.6,0l-7.2-7.2c-0.4-0.4-0.4-1.1,0-1.6c0.4-0.4,1.1-0.4,1.6,0l6.4,6.4
			l6.4-6.4c0.4-0.4,1.1-0.4,1.6,0c0.4,0.4,0.4,1.1,0,1.6L1015.8,2623z"/>
	</g>
	<g>
		<path class="st19" d="M1015.1,2487.6v31.9v63.7c0,7.9-3.9,11.8-11.8,11.8H233.6c-7.9,0-11.8,3.9-11.8,11.8v14.2"/>
		<path class="st19" d="M1015.1,2482.9c-2,0-3.5,1.6-3.5,3.5s1.6,3.5,3.5,3.5c2,0,3.5-1.6,3.5-3.5S1017,2482.9,1015.1,2482.9z"/>
		<path class="st19" d="M222.6,2623c-0.4,0.4-1.1,0.4-1.6,0l-7.2-7.2c-0.4-0.4-0.4-1.1,0-1.6c0.4-0.4,1.1-0.4,1.6,0l6.4,6.4l6.4-6.4
			c0.4-0.4,1.1-0.4,1.6,0c0.4,0.4,0.4,1.1,0,1.6L222.6,2623z"/>
	</g>
	<g>
		<path class="st19" d="M1512,2443.9h31.9l0,0h29.5"/>
		<path class="st19" d="M1507.3,2443.9c0,2,1.6,3.5,3.5,3.5s3.5-1.6,3.5-3.5c0-2-1.6-3.5-3.5-3.5S1507.3,2442,1507.3,2443.9z"/>
		<path class="st19" d="M1575.4,2443.1c0.4,0.4,0.4,1.1,0,1.6l-7.2,7.2c-0.4,0.4-1.1,0.4-1.6,0c-0.4-0.4-0.4-1.1,0-1.6l6.4-6.4
			l-6.4-6.4c-0.4-0.4-0.4-1.1,0-1.6c0.4-0.4,1.1-0.4,1.6,0L1575.4,2443.1z"/>
	</g>
	<g>
		<path class="st19" d="M1776.4,2443.9h20.1c7.9,0,11.8-3.9,11.8-11.8v-51.9c0-7.9,3.9-11.8,11.8-11.8h70.8"/>
		<path class="st19" d="M1771.7,2443.9c0,2,1.6,3.5,3.5,3.5c2,0,3.5-1.6,3.5-3.5c0-2-1.6-3.5-3.5-3.5
			C1773.3,2440.4,1771.7,2442,1771.7,2443.9z"/>
		<path class="st19" d="M1893,2367.6c0.4,0.4,0.4,1.1,0,1.6l-7.2,7.2c-0.4,0.4-1.1,0.4-1.6,0c-0.4-0.4-0.4-1.1,0-1.6l6.4-6.4
			l-6.4-6.4c-0.4-0.4-0.4-1.1,0-1.6c0.4-0.4,1.1-0.4,1.6,0L1893,2367.6z"/>
	</g>
	<g>
		<path class="st19" d="M1776.4,2443.9h20.1c7.9,0,11.8,3.9,11.8,11.8v51.9c0,7.9,3.9,11.8,11.8,11.8h70.8"/>
		<path class="st19" d="M1771.7,2443.9c0,2,1.6,3.5,3.5,3.5c2,0,3.5-1.6,3.5-3.5c0-2-1.6-3.5-3.5-3.5
			C1773.3,2440.4,1771.7,2442,1771.7,2443.9z"/>
		<path class="st19" d="M1893,2518.7c0.4,0.4,0.4,1.1,0,1.6l-7.2,7.2c-0.4,0.4-1.1,0.4-1.6,0c-0.4-0.4-0.4-1.1,0-1.6l6.4-6.4
			l-6.4-6.4c-0.4-0.4-0.4-1.1,0-1.6c0.4-0.4,1.1-0.4,1.6,0L1893,2518.7z"/>
	</g>
	<g>
		<path class="st19" d="M1940.5,2321.1v-16.5c0-7.9-3.9-11.8-11.8-11.8h-505.2c-7.9,0-11.8,3.9-11.8,11.8v63.7v29.5"/>
		<path class="st19" d="M1940.5,2325.9c2,0,3.5-1.6,3.5-3.5s-1.6-3.5-3.5-3.5c-2,0-3.5,1.6-3.5,3.5S1938.6,2325.9,1940.5,2325.9z"/>
		<path class="st19" d="M1412.5,2399.9c-0.4,0.4-1.1,0.4-1.6,0l-7.2-7.2c-0.4-0.4-0.4-1.1,0-1.6c0.4-0.4,1.1-0.4,1.6,0l6.4,6.4
			l6.4-6.4c0.4-0.4,1.1-0.4,1.6,0c0.4,0.4,0.4,1.1,0,1.6L1412.5,2399.9z"/>
	</g>
	<g>
		<path class="st19" d="M1987.7,2519.5h73.2c7.9,0,11.8-3.9,11.8-11.8v-51.9c0-7.9,3.9-11.8,11.8-11.8h17.7"/>
		<path class="st19" d="M1983,2519.5c0,2,1.6,3.5,3.5,3.5c2,0,3.5-1.6,3.5-3.5s-1.6-3.5-3.5-3.5
			C1984.6,2515.9,1983,2517.5,1983,2519.5z"/>
		<path class="st19" d="M2104.3,2443.1c0.4,0.4,0.4,1.1,0,1.6l-7.2,7.2c-0.4,0.4-1.1,0.4-1.6,0s-0.4-1.1,0-1.6l6.4-6.4l-6.4-6.4
			c-0.4-0.4-0.4-1.1,0-1.6s1.1-0.4,1.6,0L2104.3,2443.1z"/>
	</g>
	<g>
		<path class="st19" d="M2305.3,2443.9h20.1c7.9,0,11.8-3.9,11.8-11.8v-51.9c0-7.9,3.9-11.8,11.8-11.8h70.8"/>
		<path class="st19" d="M2300.5,2443.9c0,2,1.6,3.5,3.5,3.5s3.5-1.6,3.5-3.5c0-2-1.6-3.5-3.5-3.5S2300.5,2442,2300.5,2443.9z"/>
		<path class="st19" d="M2421.8,2367.6c0.4,0.4,0.4,1.1,0,1.6l-7.2,7.2c-0.4,0.4-1.1,0.4-1.6,0c-0.4-0.4-0.4-1.1,0-1.6l6.4-6.4
			l-6.4-6.4c-0.4-0.4-0.4-1.1,0-1.6c0.4-0.4,1.1-0.4,1.6,0L2421.8,2367.6z"/>
	</g>
	<g>
		<path class="st19" d="M2305.3,2443.9h20.1c7.9,0,11.8,3.9,11.8,11.8v51.9c0,7.9,3.9,11.8,11.8,11.8h70.8"/>
		<path class="st19" d="M2300.5,2443.9c0,2,1.6,3.5,3.5,3.5s3.5-1.6,3.5-3.5c0-2-1.6-3.5-3.5-3.5S2300.5,2442,2300.5,2443.9z"/>
		<path class="st19" d="M2421.8,2518.7c0.4,0.4,0.4,1.1,0,1.6l-7.2,7.2c-0.4,0.4-1.1,0.4-1.6,0c-0.4-0.4-0.4-1.1,0-1.6l6.4-6.4
			l-6.4-6.4c-0.4-0.4-0.4-1.1,0-1.6s1.1-0.4,1.6,0L2421.8,2518.7z"/>
	</g>
	<g>
		<path class="st19" d="M2469.3,2321.1v-16.5c0-7.9-3.9-11.8-11.8-11.8h-1034c-7.9,0-11.8,3.9-11.8,11.8v63.7v29.5"/>
		<path class="st19" d="M2469.3,2325.9c2,0,3.5-1.6,3.5-3.5s-1.6-3.5-3.5-3.5s-3.5,1.6-3.5,3.5S2467.4,2325.9,2469.3,2325.9z"/>
		<path class="st19" d="M1412.5,2399.9c-0.4,0.4-1.1,0.4-1.6,0l-7.2-7.2c-0.4-0.4-0.4-1.1,0-1.6c0.4-0.4,1.1-0.4,1.6,0l6.4,6.4
			l6.4-6.4c0.4-0.4,1.1-0.4,1.6,0c0.4,0.4,0.4,1.1,0,1.6L1412.5,2399.9z"/>
	</g>
	<g>
		<path class="st19" d="M174.6,2670.6h-73.2c-7.9,0-11.8-3.9-11.8-11.8v-618.5c0-7.9,3.9-11.8,11.8-11.8h781.4h29.5"/>
		<path class="st19" d="M179.3,2670.6c0-2-1.6-3.5-3.5-3.5s-3.5,1.6-3.5,3.5s1.6,3.5,3.5,3.5S179.3,2672.5,179.3,2670.6z"/>
		<path class="st19" d="M914.4,2027.6c0.4,0.4,0.4,1.1,0,1.6l-7.2,7.2c-0.4,0.4-1.1,0.4-1.6,0c-0.4-0.4-0.4-1.1,0-1.6l6.4-6.4
			l-6.4-6.4c-0.4-0.4-0.4-1.1,0-1.6c0.4-0.4,1.1-0.4,1.6,0L914.4,2027.6z"/>
	</g>
</g>
<g>
	<g>
		<g>
			<line class="st19" x1="2327.2" y1="856.2" x2="2327.2" y2="862.2"/>
			<path class="st23" d="M2327.2,874.3v350.1c0,5.4-4.4,9.8-9.8,9.8h-1254h-12.5"/>
			<line class="st19" x1="1044.8" y1="1234.2" x2="1038.9" y2="1234.2"/>
		</g>
	</g>
	<path class="st19" d="M2329.3,853.1c-3.1-2.4-6.6,1.1-4.2,4.2C2328.1,859.7,2331.6,856.2,2329.3,853.1z"/>
	<path class="st19" d="M1037.2,1234.8c-0.4-0.4-0.4-0.9,0-1.3l6-5.9c0.4-0.4,0.9-0.4,1.3,0c0.4,0.4,0.4,0.9,0,1.3l-5.3,5.3l5.3,5.3
		c0.4,0.4,0.4,0.9,0,1.3c-0.4,0.4-0.9,0.4-1.3,0L1037.2,1234.8z"/>
</g>
<g>
	<rect x="98.4" y="94.6" class="st24" width="592.3" height="110.5"/>
	<text transform="matrix(1 0 0 1 98.3999 148.6001)" class="st7 st25 st26">Website</text>
</g>
<g>
	<rect x="98.4" y="1192.7" class="st24" width="592.3" height="110.5"/>
	<text transform="matrix(1 0 0 1 98.3999 1246.7002)" class="st7 st25 st26">Mobile App</text>
</g>
</svg>
